<svg width="430" height="430" viewBox="0 0 430 430" fill="none" xmlns="http://www.w3.org/2000/svg">
<path d="M430 328.864H0V329.079H430V328.864Z" fill="#EBEBEB"/>
<path d="M203.82 290.508H37.7626C36.4617 290.506 35.2149 289.987 34.2958 289.066C33.3768 288.146 32.8606 286.898 32.8606 285.597V52.1674C32.8719 50.874 33.3931 49.6373 34.3109 48.7259C35.2288 47.8145 36.4691 47.302 37.7626 47.2998H203.82C205.122 47.2998 206.371 47.8172 207.292 48.7381C208.213 49.659 208.731 50.908 208.731 52.2104V285.597C208.731 286.9 208.213 288.149 207.292 289.07C206.371 289.99 205.122 290.508 203.82 290.508ZM37.7626 47.4718C36.5187 47.4741 35.3266 47.9698 34.4479 48.8501C33.5691 49.7305 33.0756 50.9235 33.0756 52.1674V285.597C33.0756 286.841 33.5691 288.034 34.4479 288.914C35.3266 289.795 36.5187 290.291 37.7626 290.293H203.82C205.065 290.291 206.258 289.795 207.138 288.915C208.018 288.035 208.513 286.842 208.516 285.597V52.1674C208.513 50.9228 208.018 49.7297 207.138 48.8496C206.258 47.9695 205.065 47.4741 203.82 47.4718H37.7626Z" fill="#EBEBEB"/>
<path d="M389.847 290.508H223.781C222.479 290.506 221.231 289.987 220.311 289.067C219.39 288.147 218.872 286.899 218.87 285.597V52.1674C218.884 50.8732 219.407 49.6365 220.326 48.7253C221.245 47.8142 222.486 47.302 223.781 47.2998H389.847C391.139 47.3043 392.377 47.8177 393.293 48.7289C394.209 49.64 394.729 50.8755 394.74 52.1674V285.597C394.74 286.897 394.225 288.143 393.308 289.063C392.391 289.984 391.146 290.503 389.847 290.508ZM223.781 47.4718C222.536 47.4741 221.343 47.9695 220.463 48.8496C219.583 49.7297 219.087 50.9228 219.085 52.1674V285.597C219.087 286.842 219.583 288.035 220.463 288.915C221.343 289.795 222.536 290.291 223.781 290.293H389.847C391.091 290.291 392.284 289.795 393.164 288.915C394.045 288.035 394.54 286.842 394.542 285.597V52.1674C394.54 50.9228 394.045 49.7297 393.164 48.8496C392.284 47.9695 391.091 47.4741 389.847 47.4718H223.781Z" fill="#EBEBEB"/>
<path d="M386.914 337.051H359.764V337.266H386.914V337.051Z" fill="#EBEBEB"/>
<path d="M288.392 334.72H259.66V334.935H288.392V334.72Z" fill="#EBEBEB"/>
<path d="M394.757 345.041H341.067V345.256H394.757V345.041Z" fill="#EBEBEB"/>
<path d="M61.6535 343.596H45.1157V343.811H61.6535V343.596Z" fill="#EBEBEB"/>
<path d="M95.3653 343.596H69.3159V343.811H95.3653V343.596Z" fill="#EBEBEB"/>
<path d="M209.96 339.966H163.039V340.181H209.96V339.966Z" fill="#EBEBEB"/>
<path d="M322.19 328.864V179.43H284.729V328.864H322.19Z" fill="#F0F0F0"/>
<path d="M320.135 216.746V183.791H286.784V216.746H320.135Z" fill="#F5F5F5"/>
<path d="M310.847 183.36H296.081C296.081 184.273 296.443 185.148 297.088 185.793C297.733 186.438 298.608 186.8 299.521 186.8H307.45C308.355 186.789 309.219 186.422 309.855 185.778C310.491 185.134 310.847 184.265 310.847 183.36Z" fill="#E6E6E6"/>
<path d="M320.135 252.668V219.712H286.784V252.668H320.135Z" fill="#F5F5F5"/>
<path d="M320.135 288.581V255.626H286.784V288.581H320.135Z" fill="#F5F5F5"/>
<path d="M320.135 324.495V291.54H286.784V324.495H320.135Z" fill="#F5F5F5"/>
<path d="M310.847 219.3H296.081C296.081 220.212 296.443 221.087 297.088 221.732C297.733 222.377 298.608 222.74 299.521 222.74H307.45C308.355 222.728 309.219 222.361 309.855 221.717C310.491 221.073 310.847 220.205 310.847 219.3Z" fill="#E6E6E6"/>
<path d="M310.847 255.188H296.081C296.081 256.1 296.443 256.975 297.088 257.62C297.733 258.265 298.608 258.627 299.521 258.627H307.45C308.355 258.616 309.219 258.249 309.855 257.605C310.491 256.961 310.847 256.092 310.847 255.188Z" fill="#E6E6E6"/>
<path d="M310.847 291.101H296.081C296.081 292.013 296.443 292.888 297.088 293.534C297.733 294.179 298.608 294.541 299.521 294.541H307.45C308.355 294.53 309.219 294.162 309.855 293.518C310.491 292.875 310.847 292.006 310.847 291.101Z" fill="#E6E6E6"/>
<path d="M340.904 328.864V179.43H322.19V328.864H340.904Z" fill="#F5F5F5"/>
<path d="M363.032 328.873V179.439H325.57V328.873H363.032Z" fill="#F0F0F0"/>
<path d="M360.976 216.746V183.791H327.626V216.746H360.976Z" fill="#F5F5F5"/>
<path d="M351.688 183.36H336.922C336.922 184.273 337.285 185.148 337.93 185.793C338.575 186.438 339.45 186.8 340.362 186.8H348.3C349.203 186.787 350.065 186.418 350.699 185.775C351.333 185.131 351.688 184.264 351.688 183.36Z" fill="#E6E6E6"/>
<path d="M360.976 252.659V219.704H327.626V252.659H360.976Z" fill="#F5F5F5"/>
<path d="M360.985 288.581V255.626H327.634V288.581H360.985Z" fill="#F5F5F5"/>
<path d="M360.976 324.495V291.54H327.626V324.495H360.976Z" fill="#F5F5F5"/>
<path d="M351.688 219.3H336.922C336.922 220.212 337.285 221.087 337.93 221.732C338.575 222.377 339.45 222.74 340.362 222.74H348.3C349.203 222.726 350.065 222.358 350.699 221.714C351.333 221.071 351.688 220.203 351.688 219.3Z" fill="#E6E6E6"/>
<path d="M351.688 255.188H336.922C336.922 256.1 337.285 256.975 337.93 257.62C338.575 258.265 339.45 258.627 340.362 258.627H348.3C349.203 258.614 350.065 258.246 350.699 257.602C351.333 256.958 351.688 256.091 351.688 255.188Z" fill="#E6E6E6"/>
<path d="M351.688 291.101H336.922C336.922 292.013 337.285 292.888 337.93 293.534C338.575 294.179 339.45 294.541 340.362 294.541H348.3C349.203 294.527 350.065 294.159 350.699 293.515C351.333 292.872 351.688 292.005 351.688 291.101Z" fill="#E6E6E6"/>
<path d="M381.745 328.864V179.43H363.032V328.864H381.745Z" fill="#F5F5F5"/>
<path d="M358.328 149.588H347.388V179.43H358.328V149.588Z" fill="#E0E0E0"/>
<path d="M313.04 179.43H354.767L360.976 131.141H319.249L313.04 179.43Z" fill="#E6E6E6"/>
<path d="M308.276 179.43H353.701L359.919 131.141H314.485L308.276 179.43Z" fill="#F0F0F0"/>
<path d="M350.39 175.629L355.618 134.942H317.804L312.567 175.629H350.39Z" fill="white"/>
<path d="M340.736 162.365C345.188 158.19 345.821 151.632 342.15 147.717C338.479 143.802 331.893 144.012 327.441 148.187C322.989 152.362 322.356 158.92 326.028 162.835C329.699 166.75 336.284 166.54 340.736 162.365Z" fill="#E6E6E6"/>
<path d="M155.144 328.864H271.846L271.846 82.2244L155.144 82.2244L155.144 328.864Z" fill="#E6E6E6"/>
<path d="M152.547 328.864H269.249L269.249 82.2244L152.547 82.2244L152.547 328.864Z" fill="#F5F5F5"/>
<path d="M264.596 323.635V87.4531H157.208V323.635H264.596Z" fill="white"/>
<path d="M159.169 323.635L159.169 87.4531H157.208L157.208 323.635H159.169Z" fill="#E6E6E6"/>
<path d="M154.482 164.053H267.331V157.036H154.482V164.053Z" fill="#F5F5F5"/>
<path d="M116.195 322.182H132.457V216.72H116.195L116.195 322.182Z" fill="#F0F0F0"/>
<path d="M49.1232 328.864H129.335V322.182H49.1232V328.864Z" fill="#F0F0F0"/>
<path d="M116.195 216.72H46.0015V322.182H116.195V216.72Z" fill="#F5F5F5"/>
<path d="M109.796 229.697H52.3911V264.286H109.796V229.697Z" fill="#F0F0F0"/>
<path d="M109.796 274.615H52.3911V309.204H109.796V274.615Z" fill="#F0F0F0"/>
<path d="M64.0356 253.089V240.911C64.0356 239.838 63.1655 238.968 62.092 238.968H61.232C60.1586 238.968 59.2884 239.838 59.2884 240.911V253.089C59.2884 254.162 60.1586 255.033 61.232 255.033H62.092C63.1655 255.033 64.0356 254.162 64.0356 253.089Z" fill="#F5F5F5"/>
<path d="M64.0271 297.999V285.821C64.0271 284.748 63.1569 283.877 62.0835 283.877H61.2235C60.1501 283.877 59.2799 284.748 59.2799 285.821V297.999C59.2799 299.072 60.1501 299.942 61.2235 299.942H62.0835C63.1569 299.942 64.0271 299.072 64.0271 297.999Z" fill="#F5F5F5"/>
<path d="M115.868 157.147C114.053 158.059 109.108 157.079 110.751 160.424C111.702 162.172 112.835 163.815 114.131 165.326C115.971 167.596 115.627 170.065 113.451 170.959C112.977 171.127 112.56 171.425 112.247 171.819C111.25 173.255 113.615 175.182 114.776 176.618C115.937 178.054 116.401 179.464 115.55 180.539C114.698 181.614 112.626 181.279 111.06 181.64C107.285 182.5 111.164 187.66 110.768 190.369C110.493 192.192 109.005 192.708 106.993 192.949C105.35 193.156 103.157 193.302 103.062 194.987C102.985 196.449 104.886 198.101 105.384 199.631C105.622 200.291 105.713 200.995 105.649 201.694C105.585 202.392 105.368 203.068 105.015 203.673C104.681 204.183 104.247 204.617 103.738 204.95C103.228 205.283 102.656 205.507 102.056 205.608C100.19 206.004 97.3691 205.608 97.2315 207.698C97.1713 208.636 97.8249 209.47 97.3691 210.338C97.1213 210.7 96.7973 211.003 96.4199 211.226C96.0425 211.448 95.6209 211.586 95.1847 211.628C93.3977 211.901 91.5775 211.869 89.8011 211.534C87.6081 211.13 84.3745 209.195 85.5613 207.337C85.7681 207.068 86.027 206.843 86.3225 206.676C86.618 206.509 86.9441 206.404 87.2813 206.365C87.8059 206.253 89.3367 206.417 89.5345 206.064C89.7323 205.712 89.2077 204.344 89.1819 203.845C89.1299 202.475 89.346 201.108 89.8183 199.821C90.4254 198.14 91.3908 196.611 92.6477 195.34C93.1723 194.815 93.9979 194.428 94.1011 193.663C94.0977 192.801 93.7935 191.968 93.2411 191.307C92.3811 190.12 91.0997 188.993 90.6611 187.729C89.9215 185.751 91.7103 185.149 93.3615 184.667C94.8665 184.263 96.8015 183.739 96.3285 181.915C95.9587 180.6 94.3075 179.525 93.8087 178.243C93.1379 176.523 94.7633 176.463 95.9243 175.844C97.4379 175.044 97.8163 173.625 97.2745 171.819C96.4145 168.852 90.9191 164.655 93.7055 162.72C94.4193 162.23 95.0729 162.067 95.5029 161.327C95.9329 160.587 96.0189 159.555 96.6123 158.842C97.5497 157.706 99.4933 157.517 100.508 156.459C102.589 154.301 98.0915 150.439 102.228 149.579C103.103 149.473 103.932 149.131 104.628 148.59C105.006 148.238 105.307 146.544 105.728 146.423C107.612 145.899 111.009 149.554 112.075 150.68C113.245 152.013 118.052 156.055 115.868 157.147Z" fill="#E0E0E0"/>
<path d="M83.5749 207.535C84.6929 205.462 89.5949 203.398 86.3355 200.999C84.5865 199.809 82.7047 198.828 80.7283 198.075C77.8903 196.888 76.8841 194.153 78.3203 191.891C78.6567 191.416 78.8668 190.862 78.9309 190.283C79.0513 188.193 75.9295 187.703 74.1407 186.946C72.3519 186.19 71.1737 185.037 71.3629 183.403C71.5607 181.606 73.5387 180.823 74.7255 179.49C77.5979 176.265 71.3887 173.35 70.3137 170.366C69.5827 168.327 70.6147 166.926 72.2573 165.369C73.5903 164.131 75.4479 162.617 74.6223 160.837C73.9171 159.289 71.3543 158.781 70.0987 157.517C69.5157 156.951 69.0523 156.273 68.7362 155.524C68.42 154.775 68.2575 153.97 68.2583 153.157C68.2788 151.731 68.8415 150.365 69.8321 149.339C71.2683 147.773 73.9773 146.44 72.9711 144.179C72.5153 143.181 71.4919 142.734 71.4317 141.599C71.4511 141.091 71.5713 140.592 71.7854 140.132C71.9995 139.671 72.3032 139.258 72.6787 138.915C74.0692 137.553 75.6951 136.455 77.4775 135.673C79.6275 134.727 83.4975 134.693 83.4975 137.333C83.4307 138.114 83.0823 138.845 82.5171 139.388C82.1129 139.827 80.6767 140.601 80.6939 141.108C80.7111 141.616 81.9065 142.665 82.1903 143.164C82.984 144.563 83.5227 146.091 83.7813 147.679C84.1499 149.781 84.1178 151.935 83.6867 154.026C83.5061 154.886 82.9815 155.797 83.2997 156.649C83.7471 157.49 84.4785 158.145 85.3637 158.498C86.7311 159.186 88.4855 159.53 89.5777 160.536C91.2977 162.11 90.0507 163.864 88.8295 165.352C87.7201 166.702 86.2495 168.465 87.6857 170.013C88.7177 171.131 90.7473 171.2 91.8739 172.206C93.3789 173.556 91.9857 174.631 91.2891 175.981C90.4291 177.701 90.8075 179.421 92.2523 180.935C94.6431 183.42 101.712 184.375 100.267 188.039C99.9063 188.985 99.4075 189.561 99.4075 190.576C99.4075 191.59 99.8977 192.717 99.7601 193.818C99.5365 195.538 97.9283 196.965 97.5929 198.677C96.9135 202.177 102.933 203.312 99.8031 206.795C99.072 207.485 98.5276 208.349 98.2207 209.306C98.0745 209.891 98.7109 211.818 98.4013 212.205C97.0253 213.925 92.0717 212.282 90.5323 211.783C88.6403 211.155 82.2419 210.003 83.5749 207.535Z" fill="#F5F5F5"/>
<path d="M71.0532 202.865C71.0532 202.865 71.6466 216.72 94.3248 216.72C117.003 216.72 117.605 202.865 117.605 202.865H71.0532Z" fill="#F0F0F0"/>
<path d="M215 367.702C307.091 367.702 381.745 363.343 381.745 357.967C381.745 352.59 307.091 348.231 215 348.231C122.909 348.231 48.2546 352.59 48.2546 357.967C48.2546 363.343 122.909 367.702 215 367.702Z" fill="#F5F5F5"/>
<path d="M269.644 350.888L262.747 350.785L261.156 334.772L268.062 334.875L269.644 350.888Z" fill="#FFB573"/>
<path d="M305.154 350.914H298.257L292.882 334.927H299.779L305.154 350.914Z" fill="#FFB573"/>
<path d="M297.337 350.114H305.747C305.885 350.115 306.019 350.162 306.126 350.247C306.234 350.333 306.31 350.453 306.341 350.587L307.7 356.728C307.734 356.877 307.734 357.032 307.698 357.18C307.663 357.329 307.595 357.468 307.497 357.586C307.4 357.704 307.277 357.798 307.138 357.861C306.998 357.924 306.846 357.954 306.693 357.949C303.984 357.906 302.006 357.742 298.601 357.742C296.502 357.742 290.173 357.966 287.275 357.966C284.376 357.966 283.998 355.102 285.185 354.836C290.5 353.675 294.507 352.075 296.21 350.536C296.522 350.264 296.922 350.115 297.337 350.114Z" fill="#263238"/>
<path d="M262.807 350.02L270.341 350.14C270.478 350.141 270.61 350.188 270.716 350.274C270.823 350.36 270.897 350.48 270.926 350.613L272.19 356.771C272.223 356.919 272.221 357.073 272.186 357.221C272.15 357.369 272.081 357.507 271.984 357.624C271.887 357.741 271.764 357.834 271.625 357.896C271.487 357.959 271.336 357.989 271.184 357.984C268.458 357.898 264.536 357.674 261.113 357.622C257.123 357.562 253.666 357.726 248.979 357.622C246.149 357.579 245.41 354.707 246.596 354.466C252.014 353.365 256.426 353.305 261.139 350.502C261.64 350.191 262.218 350.025 262.807 350.02Z" fill="#263238"/>
<path d="M267.047 145.194C264.864 150.04 262.433 154.771 259.763 159.367C258.43 161.663 257.037 163.942 255.523 166.178C254.017 168.47 252.386 170.678 250.639 172.791L249.959 173.6L249.615 174.004C249.495 174.142 249.417 174.245 249.177 174.494C248.191 175.604 246.926 176.429 245.513 176.885C244.638 177.159 243.717 177.256 242.804 177.169C241.999 177.1 241.211 176.896 240.473 176.567C239.41 176.084 238.441 175.417 237.61 174.597C236.431 173.421 235.419 172.091 234.6 170.641C233.881 169.398 233.229 168.118 232.647 166.806C230.523 161.84 228.932 156.662 227.9 151.36L232.854 149.821C233.912 152.074 235.004 154.405 236.148 156.623C237.291 158.842 238.461 161.061 239.725 163.099C240.318 164.093 240.964 165.055 241.66 165.98C242.206 166.731 242.841 167.413 243.552 168.01C243.81 168.208 244.008 168.251 243.905 168.165C243.761 168.087 243.603 168.037 243.44 168.018C243.172 167.987 242.901 168.008 242.641 168.079C242.125 168.242 242.047 168.362 242.107 168.251L243.062 166.935C245.855 162.882 248.399 158.663 250.682 154.301C253.047 149.907 255.351 145.314 257.51 140.868L267.047 145.194Z" fill="#FFB573"/>
<path d="M269.92 140.868C271.777 147.197 258.679 164.458 258.679 164.458L245.461 155.961C247.952 150.488 251.023 145.299 254.62 140.481C260.03 133.541 267.873 133.919 269.92 140.868Z" fill="#407BFF"/>
<path opacity="0.2" d="M269.92 140.868C271.777 147.197 258.679 164.458 258.679 164.458L245.461 155.961C247.952 150.488 251.023 145.299 254.62 140.481C260.03 133.541 267.873 133.919 269.92 140.868Z" fill="black"/>
<path opacity="0.2" d="M261.862 148.298C259.144 149.459 255.145 156.038 253.064 160.854L258.671 164.458C261.803 160.269 264.621 155.854 267.099 151.248C265.327 149.305 263.298 147.688 261.862 148.298Z" fill="black"/>
<path d="M232.733 152.297L234.453 144.514L226.601 144.454C226.601 144.454 224.503 150.302 228.726 153.054L232.733 152.297Z" fill="#FFB573"/>
<path d="M233.533 137.222L227.238 139.483L226.576 144.454L234.427 144.514L233.533 137.222Z" fill="#FFB573"/>
<path opacity="0.2" d="M261.165 334.772L261.982 343.028L268.879 343.14L268.071 334.884L261.165 334.772Z" fill="black"/>
<path opacity="0.2" d="M299.779 334.936H292.882L295.651 343.174H302.557L299.779 334.936Z" fill="black"/>
<path d="M300.691 138.064C293.252 164.285 294.756 192.115 294.086 197.748C288.685 197.361 268.346 195.839 257.261 195.013C252.427 155.72 262.094 135.536 262.094 135.536C262.094 135.536 264.467 135.08 267.684 134.744C268.69 134.641 269.782 134.555 270.917 134.495C271.545 134.495 272.181 134.435 272.826 134.426C278.062 134.516 283.287 134.903 288.479 135.587C289.459 135.708 290.456 135.862 291.428 136.017C292.4 136.172 293.2 136.335 294.008 136.499C297.792 137.247 300.691 138.064 300.691 138.064Z" fill="#407BFF"/>
<path opacity="0.2" d="M300.691 138.064C293.252 164.285 294.756 192.115 294.086 197.748C288.685 197.361 268.346 195.839 257.261 195.013C252.427 155.72 262.094 135.536 262.094 135.536C262.094 135.536 264.467 135.08 267.684 134.744C268.69 134.641 269.782 134.555 270.917 134.495C271.545 134.495 272.181 134.435 272.826 134.426C278.062 134.516 283.287 134.903 288.479 135.587C289.459 135.708 290.456 135.862 291.428 136.017C292.4 136.172 293.2 136.335 294.008 136.499C297.792 137.247 300.691 138.064 300.691 138.064Z" fill="black"/>
<path opacity="0.2" d="M292.83 149.313C292.168 151.85 292.925 163.426 295.573 166.281C295.935 162.574 296.433 158.704 297.053 154.748L292.83 149.313Z" fill="black"/>
<path d="M288.238 117.82C286.879 122.782 285.202 131.941 288.478 135.562C285.537 138.081 281.727 140.954 275.733 140.722C269.739 140.489 271.081 136.422 272.826 134.401C278.537 133.472 278.709 129.292 277.986 125.31L288.238 117.82Z" fill="#FFB573"/>
<path d="M287.928 134.16C287.928 134.16 285.451 138.245 275.492 140.73C277.144 142.261 277.943 145.89 277.943 145.89C277.943 145.89 290.938 142.76 290.542 135.45C289.749 134.876 288.866 134.44 287.928 134.16Z" fill="#263238"/>
<path d="M271.949 144.953C271.949 144.953 273.256 141.805 275.492 140.73C274.452 139.655 272.912 136.43 273.824 134.013C273.053 133.952 272.277 134.001 271.519 134.16C271.519 134.16 267.58 139.122 271.949 144.953Z" fill="#263238"/>
<path d="M275.063 145.048C274.951 145.718 274.555 146.217 274.203 146.148C273.85 146.08 273.635 145.486 273.755 144.815C273.876 144.145 274.271 143.637 274.615 143.706C274.959 143.775 275.2 144.368 275.063 145.048Z" fill="#263238"/>
<path d="M274.478 148.918C274.418 149.606 274.074 150.13 273.704 150.096C273.334 150.061 273.085 149.485 273.145 148.806C273.205 148.126 273.549 147.593 273.919 147.628C274.289 147.662 274.538 148.238 274.478 148.918Z" fill="#263238"/>
<path opacity="0.2" d="M284.075 120.907L278.055 125.336C278.235 126.263 278.327 127.204 278.33 128.148C280.506 127.994 283.628 125.861 284.024 123.633C284.199 122.735 284.216 121.812 284.075 120.907Z" fill="black"/>
<path d="M274.426 99.0804C269.06 98.96 267.976 111.929 271.459 114.191C274.942 116.452 284.471 99.2954 274.426 99.0804Z" fill="#263238"/>
<path d="M289.399 110.312C288.478 117.098 288.281 121.122 284.574 124.365C279.001 129.241 270.814 125.491 269.696 118.568C268.69 112.333 270.367 102.28 277.247 100.061C278.761 99.5639 280.377 99.4622 281.941 99.7658C283.505 100.069 284.965 100.768 286.183 101.796C287.401 102.823 288.336 104.145 288.899 105.636C289.462 107.126 289.634 108.736 289.399 110.312Z" fill="#FFB573"/>
<path d="M288.427 116.96C284.987 118.775 281.014 99.9923 290.147 100.973C301.619 102.194 295.333 113.339 288.427 116.96Z" fill="#263238"/>
<path d="M273.11 100.93C273.11 105.135 286.759 109.315 291.437 107.878C296.115 106.442 297.294 102.718 294.782 100.138C290.534 95.6921 273.11 92.6907 273.11 100.93Z" fill="#263238"/>
<path d="M273.661 101.48C273.976 102.871 274.656 104.153 275.63 105.195C274.409 105.126 273.196 103.398 272.809 102.392C272.422 101.385 273.661 101.48 273.661 101.48Z" fill="#263238"/>
<path d="M291.919 118.061C291.414 118.75 290.778 119.332 290.047 119.775C289.317 120.218 288.506 120.512 287.662 120.641C285.4 120.968 284.566 118.869 285.443 116.891C286.234 115.111 288.358 112.798 290.508 113.382C292.658 113.967 293.157 116.349 291.919 118.061Z" fill="#FFB573"/>
<path d="M259.419 341.42L271.107 341.6C271.107 341.6 267.202 295.427 268.26 273.944C268.578 267.408 269.894 258.266 271.614 248.471C273.798 236.121 274.848 231.202 277.634 215.602C279.646 204.473 281.435 196.845 281.435 196.845L257.226 195.039C257.226 195.039 246.992 250.664 247.233 271.76C247.474 293.629 259.419 341.42 259.419 341.42Z" fill="#263238"/>
<path opacity="0.2" d="M272.947 211.56C268.595 222.396 268.509 247.783 270.513 254.93C270.857 252.814 271.227 250.63 271.614 248.445C273.798 236.096 274.847 231.177 277.634 215.576C277.685 215.267 277.746 214.966 277.797 214.665C276.371 213.358 274.731 212.307 272.947 211.56Z" fill="black"/>
<path d="M270.324 195.985C270.324 195.985 272.457 254.199 274.082 274.357C275.854 296.442 292.4 341.575 292.4 341.575H305.042C305.042 341.575 296.605 300.295 294.017 278.795C291.067 254.371 294.068 197.731 294.068 197.731L270.324 195.985Z" fill="#263238"/>
<path d="M290.895 341.85H305.782V337.404L289.141 337.111L290.895 341.85Z" fill="#407BFF"/>
<path d="M257.949 341.643L271.872 341.858L271.941 337.361L256.375 336.879L257.949 341.643Z" fill="#407BFF"/>
<path d="M278.915 111.447C278.872 112.006 278.546 112.436 278.184 112.402C277.823 112.367 277.557 111.903 277.6 111.353C277.643 110.802 277.969 110.372 278.331 110.398C278.692 110.424 278.958 110.94 278.915 111.447Z" fill="#263238"/>
<path d="M272.62 110.983C272.62 111.542 272.25 111.963 271.889 111.937C271.528 111.912 271.27 111.439 271.304 110.888C271.339 110.338 271.674 109.899 272.044 109.925C272.414 109.951 272.68 110.424 272.62 110.983Z" fill="#263238"/>
<path d="M274.615 111.404C273.825 113.054 272.812 114.587 271.605 115.962C271.96 116.256 272.375 116.47 272.82 116.588C273.265 116.707 273.731 116.728 274.185 116.65L274.615 111.404Z" fill="#ED893E"/>
<path d="M276.456 118.31C277.08 118.285 277.692 118.132 278.255 117.86C278.817 117.587 279.317 117.202 279.724 116.727C279.739 116.712 279.751 116.694 279.759 116.674C279.768 116.654 279.772 116.633 279.772 116.611C279.772 116.59 279.768 116.568 279.759 116.548C279.751 116.529 279.739 116.51 279.724 116.495C279.692 116.466 279.651 116.45 279.608 116.45C279.565 116.45 279.523 116.466 279.491 116.495C279.03 117.013 278.453 117.414 277.808 117.667C277.162 117.919 276.466 118.016 275.776 117.949C275.734 117.946 275.693 117.96 275.661 117.987C275.629 118.015 275.609 118.053 275.604 118.095C275.602 118.116 275.604 118.138 275.61 118.159C275.616 118.18 275.626 118.199 275.64 118.216C275.653 118.232 275.67 118.246 275.689 118.257C275.708 118.267 275.729 118.273 275.75 118.275C275.984 118.303 276.22 118.315 276.456 118.31Z" fill="#263238"/>
<path d="M281.005 109.564C281.061 109.563 281.115 109.545 281.16 109.512C281.196 109.49 281.227 109.46 281.251 109.425C281.276 109.39 281.293 109.35 281.302 109.309C281.311 109.267 281.311 109.224 281.303 109.182C281.295 109.14 281.278 109.1 281.254 109.065C280.981 108.618 280.604 108.243 280.155 107.974C279.706 107.704 279.198 107.547 278.674 107.517C278.588 107.517 278.505 107.552 278.443 107.613C278.382 107.674 278.348 107.757 278.348 107.844C278.348 107.931 278.382 108.014 278.443 108.075C278.505 108.136 278.588 108.171 278.674 108.171C279.084 108.204 279.479 108.335 279.827 108.552C280.176 108.769 280.468 109.065 280.678 109.418C280.713 109.471 280.762 109.514 280.82 109.54C280.878 109.565 280.942 109.574 281.005 109.564Z" fill="#263238"/>
<path d="M270.092 108.626C270.146 108.622 270.198 108.605 270.245 108.577C270.291 108.548 270.33 108.509 270.358 108.463C270.553 108.1 270.832 107.788 271.171 107.555C271.511 107.321 271.902 107.173 272.311 107.121C272.353 107.119 272.395 107.108 272.433 107.09C272.472 107.071 272.506 107.045 272.534 107.013C272.562 106.981 272.583 106.944 272.597 106.903C272.61 106.863 272.615 106.82 272.612 106.777C272.61 106.735 272.601 106.693 272.583 106.654C272.566 106.615 272.541 106.581 272.509 106.552C272.478 106.523 272.441 106.501 272.401 106.486C272.361 106.472 272.319 106.465 272.276 106.468C271.76 106.528 271.266 106.71 270.834 106.999C270.402 107.287 270.044 107.674 269.791 108.128C269.769 108.165 269.755 108.206 269.75 108.249C269.744 108.291 269.747 108.335 269.758 108.376C269.769 108.418 269.789 108.457 269.815 108.491C269.841 108.525 269.874 108.553 269.911 108.575C269.966 108.608 270.028 108.625 270.092 108.626Z" fill="#263238"/>
<path d="M295.049 351.327C295.658 351.31 296.264 351.227 296.855 351.078C296.887 351.07 296.917 351.053 296.94 351.028C296.963 351.004 296.978 350.973 296.984 350.94C296.987 350.908 296.981 350.877 296.967 350.848C296.954 350.819 296.933 350.795 296.907 350.777C296.657 350.622 294.43 349.254 293.664 349.641C293.58 349.686 293.509 349.753 293.459 349.835C293.409 349.916 293.382 350.01 293.381 350.106C293.365 350.266 293.388 350.428 293.448 350.578C293.508 350.727 293.603 350.861 293.725 350.966C294.113 351.231 294.579 351.359 295.049 351.327ZM296.382 350.845C295.212 351.078 294.309 351.035 293.931 350.716C293.848 350.645 293.784 350.555 293.745 350.453C293.705 350.35 293.693 350.24 293.707 350.132C293.705 350.092 293.713 350.053 293.731 350.018C293.749 349.983 293.777 349.954 293.811 349.934C294.206 349.727 295.479 350.321 296.382 350.88V350.845Z" fill="#407BFF"/>
<path d="M296.821 351.078C296.849 351.085 296.878 351.085 296.907 351.078C296.931 351.062 296.951 351.04 296.964 351.015C296.978 350.989 296.984 350.96 296.984 350.932C296.984 350.846 296.812 348.85 296.012 348.197C295.918 348.114 295.807 348.052 295.687 348.016C295.566 347.981 295.44 347.972 295.316 347.99C295.193 347.988 295.073 348.029 294.977 348.106C294.881 348.183 294.815 348.291 294.791 348.412C294.645 349.186 296.029 350.699 296.743 351.086L296.821 351.078ZM295.427 348.3C295.565 348.299 295.697 348.352 295.797 348.446C296.283 349.066 296.568 349.819 296.614 350.605C295.909 350.063 295.023 348.885 295.109 348.472C295.109 348.429 295.109 348.326 295.35 348.3H295.427Z" fill="#407BFF"/>
<path d="M262.111 350.932C262.14 350.921 262.166 350.903 262.186 350.878C262.206 350.854 262.218 350.825 262.223 350.794C262.227 350.761 262.22 350.728 262.205 350.699C262.19 350.67 262.166 350.646 262.137 350.631C261.827 350.459 259.075 349.014 258.232 349.461C258.153 349.505 258.086 349.568 258.038 349.645C257.99 349.721 257.962 349.809 257.957 349.9C257.937 350.047 257.953 350.196 258.004 350.336C258.055 350.475 258.139 350.6 258.249 350.699C258.989 351.379 260.976 351.138 262.094 350.932H262.111ZM258.447 349.728C258.963 349.556 260.46 350.149 261.552 350.691C260.021 350.923 258.886 350.837 258.464 350.459C258.393 350.391 258.338 350.308 258.305 350.215C258.273 350.122 258.262 350.023 258.275 349.925C258.275 349.889 258.286 349.853 258.306 349.823C258.326 349.792 258.354 349.768 258.387 349.753L258.447 349.728Z" fill="#407BFF"/>
<path d="M262.111 350.931H262.154C262.178 350.916 262.198 350.895 262.21 350.869C262.222 350.843 262.227 350.814 262.223 350.785C262.223 350.708 262.059 348.842 261.191 348.111C261.074 348.006 260.938 347.927 260.79 347.877C260.643 347.827 260.486 347.807 260.331 347.818C259.875 347.818 259.746 348.076 259.711 348.265C259.574 349.039 261.199 350.562 262.025 350.949C262.054 350.949 262.084 350.943 262.111 350.931ZM260.15 348.145H260.322C260.442 348.134 260.563 348.148 260.677 348.186C260.791 348.225 260.896 348.287 260.984 348.369C261.484 348.977 261.785 349.725 261.844 350.51C260.984 349.985 259.901 348.79 259.978 348.326C260.004 348.3 260.012 348.188 260.15 348.145Z" fill="#407BFF"/>
<path d="M302.462 142.364C304.87 147.197 307.029 152.031 309.015 156.984C310.022 159.461 310.95 161.981 311.862 164.518C312.309 165.799 312.722 167.098 313.152 168.371L313.462 169.342L313.797 170.46C314.038 171.226 314.175 171.991 314.356 172.748C315.305 178.539 315.035 184.465 313.565 190.146C312.927 192.843 312.12 195.497 311.148 198.092C310.658 199.382 310.133 200.672 309.574 201.902C309.015 203.132 308.448 204.37 307.751 205.66L302.995 203.596C303.658 201.248 304.328 198.711 304.801 196.243C305.274 193.775 305.713 191.281 305.988 188.821C306.26 186.406 306.357 183.975 306.281 181.546C306.234 179.272 305.917 177.011 305.335 174.812C305.171 174.305 305.042 173.771 304.844 173.29C304.741 173.04 304.681 172.834 304.552 172.533L304.191 171.673C303.709 170.495 303.185 169.317 302.686 168.138C301.68 165.765 300.587 163.417 299.538 161.052L293.045 146.922L302.462 142.364Z" fill="#FFB573"/>
<path d="M300.69 138.064C306.986 140.042 313.178 161.396 313.178 161.396L298.609 167.769C298.609 167.769 293.896 157.449 291.179 149.365C288.229 140.55 293.054 135.673 300.69 138.064Z" fill="#407BFF"/>
<path opacity="0.2" d="M300.69 138.064C306.986 140.042 313.178 161.396 313.178 161.396L298.609 167.769C298.609 167.769 293.896 157.449 291.179 149.365C288.229 140.55 293.054 135.673 300.69 138.064Z" fill="black"/>
<path d="M303.382 202.435L299.985 208.567L307.992 210.648C307.992 210.648 310.409 204.705 307.553 202.813L303.382 202.435Z" fill="#FFB573"/>
<path d="M299.392 215.524L306.745 216.135L307.992 210.648L299.985 208.567L299.392 215.524Z" fill="#FFB573"/>
<path opacity="0.19" d="M255.205 248.772H73.2461L86.0773 66.8223H268.036L255.205 248.772Z" fill="#407BFF"/>
<path opacity="0.2" d="M114.242 248.772H88.0725L153.269 66.8223H179.439L114.242 248.772Z" fill="white"/>
<path opacity="0.2" d="M177.805 248.772H120.082L185.278 66.8223H243.002L177.805 248.772Z" fill="white"/>
<path d="M86.5591 97.8939L81.2271 97.5155L83.5835 64.1475H116.96V69.4967H88.5629L86.5591 97.8939Z" fill="#407BFF"/>
<path d="M104.129 251.447H70.3738L72.756 217.709L78.088 218.087L76.11 246.098H104.129V251.447Z" fill="#407BFF"/>
<path d="M268.518 97.8939L263.194 97.5155L265.164 69.4967H237.145V64.1475H270.9L268.518 97.8939Z" fill="#407BFF"/>
<path d="M257.69 251.447H224.314V246.098H252.711L254.715 217.709L260.047 218.087L257.69 251.447Z" fill="#407BFF"/>
<g opacity="0.3">
<path opacity="0.3" d="M167.055 221.94C166.897 221.937 166.741 221.899 166.599 221.828C166.548 221.828 165.283 221.106 163.159 219.799C162.299 219.257 161.216 218.595 160.037 217.846C156.296 215.413 152.693 212.85 149.313 210.227C148.453 209.59 147.679 208.937 146.845 208.266C143.732 205.686 140.825 203.158 138.297 200.646C137.643 199.993 136.998 199.339 136.353 198.668C134.005 196.25 131.799 193.698 129.748 191.023C129.249 190.378 128.768 189.716 128.295 189.045C126.546 186.607 124.985 184.04 123.625 181.365C123.298 180.72 122.971 180.041 122.67 179.361C121.541 176.874 120.66 174.282 120.039 171.621C119.884 171.011 119.746 170.349 119.626 169.609C119.531 169.127 119.454 168.62 119.394 168.121C119.127 166.152 118.904 164.148 118.689 161.981C118.62 161.336 118.56 160.682 118.499 160.037C118.276 157.457 118.087 154.937 117.949 152.426V152.22C117.949 151.652 117.88 151.085 117.854 150.5C117.734 148.023 117.648 145.469 117.596 142.906V140.954C117.596 138.245 117.596 135.691 117.596 133.36C117.596 132.706 117.596 132.053 117.639 131.408C117.7 128.604 117.794 126.05 117.906 123.814V123.668C117.906 123.049 117.958 122.447 117.992 121.853C118.147 119.084 118.327 116.461 118.517 114.259C118.577 113.511 118.628 112.875 118.689 112.307C118.886 110.14 119.033 108.927 119.033 108.927C119.05 108.705 119.147 108.497 119.304 108.339C119.462 108.181 119.67 108.085 119.893 108.067C120.047 108.067 135.914 106.838 152.813 103.862C156.253 103.26 159.573 102.606 162.721 101.927C167.356 100.912 171.596 99.8114 175.337 98.6504C175.524 98.5905 175.726 98.5905 175.913 98.6504C179.482 99.82 183.567 100.921 188.056 101.927C191.109 102.615 194.343 103.26 197.688 103.862C214.166 106.838 229.861 108.059 230.016 108.067C230.255 108.087 230.478 108.198 230.638 108.377C230.798 108.557 230.883 108.79 230.876 109.031C230.876 109.031 230.876 110.235 230.747 112.41C230.747 112.987 230.686 113.64 230.643 114.363C230.514 116.573 230.325 119.196 230.093 121.956C230.041 122.507 229.99 123.057 229.938 123.633V123.917C229.74 126.162 229.465 128.716 229.138 131.502C229.061 132.165 228.984 132.81 228.898 133.463C228.605 135.802 228.253 138.357 227.84 141.048L227.547 142.992C227.135 145.572 226.687 148.152 226.223 150.594C226.12 151.145 226.008 151.704 225.896 152.263L225.836 152.555C225.346 155.049 224.804 157.612 224.219 160.149L223.755 162.11C223.23 164.277 222.723 166.281 222.19 168.242C222.043 168.749 221.897 169.248 221.742 169.747C221.51 170.478 221.287 171.131 221.046 171.75C220.037 174.435 218.794 177.025 217.331 179.49C216.944 180.153 216.531 180.823 216.101 181.477C214.36 184.155 212.444 186.715 210.365 189.14C209.797 189.802 209.229 190.464 208.645 191.109C206.224 193.782 203.669 196.331 200.991 198.746C200.251 199.411 199.511 200.064 198.772 200.707C195.856 203.218 192.631 205.772 189.166 208.318C188.237 208.988 187.325 209.642 186.422 210.278C182.673 212.901 178.682 215.438 174.64 217.889C173.35 218.638 172.206 219.3 171.2 219.842C168.895 221.14 167.537 221.837 167.485 221.863C167.35 221.921 167.202 221.948 167.055 221.94ZM120.813 109.908C120.753 110.475 120.667 111.335 120.563 112.488C120.503 113.055 120.452 113.683 120.4 114.371C120.211 116.607 120.03 119.213 119.875 121.974C119.875 122.558 119.815 123.152 119.781 123.771V123.917C119.66 126.136 119.574 128.673 119.514 131.459C119.514 132.096 119.514 132.741 119.471 133.394C119.471 135.716 119.471 138.253 119.471 140.937V142.889C119.523 145.426 119.609 147.963 119.729 150.414C119.729 150.981 119.781 151.54 119.815 152.134V152.392C119.953 154.877 120.133 157.414 120.357 159.925C120.417 160.57 120.477 161.215 120.546 161.86C120.753 164.002 120.985 165.997 121.243 167.941C121.303 168.414 121.372 168.887 121.458 169.351C121.578 170.056 121.707 170.667 121.853 171.252C122.45 173.793 123.294 176.27 124.373 178.648C124.666 179.293 124.967 179.938 125.285 180.557C126.603 183.15 128.115 185.639 129.808 188.004C130.273 188.649 130.737 189.294 131.227 189.922C133.237 192.539 135.393 195.04 137.686 197.413C138.322 198.066 138.959 198.711 139.604 199.348C142.115 201.816 144.944 204.336 148.015 206.847C148.875 207.509 149.649 208.154 150.457 208.791C153.785 211.371 157.337 213.908 161.035 216.307C162.196 217.047 163.237 217.7 164.122 218.233C165.49 219.093 166.505 219.661 167.046 219.953C167.623 219.652 168.766 219.093 170.246 218.233C171.217 217.692 172.344 217.038 173.617 216.29C177.642 213.89 181.563 211.362 185.27 208.765C186.13 208.137 187.067 207.492 187.987 206.821C191.427 204.31 194.601 201.79 197.447 199.313C198.178 198.677 198.909 198.032 199.632 197.37C202.268 194.999 204.782 192.496 207.165 189.871C207.742 189.234 208.301 188.598 208.885 187.953C210.913 185.592 212.781 183.098 214.475 180.488C214.897 179.852 215.335 179.207 215.662 178.57C217.091 176.205 218.308 173.719 219.3 171.14C219.532 170.546 219.747 169.927 219.962 169.231C220.117 168.758 220.255 168.276 220.384 167.803C220.917 165.859 221.424 163.873 221.94 161.723C222.104 161.078 222.25 160.433 222.405 159.788C222.981 157.268 223.523 154.731 224.004 152.254L224.064 151.953C224.176 151.403 224.279 150.852 224.383 150.302C224.847 147.86 225.294 145.323 225.698 142.76L225.999 140.825C226.404 138.15 226.756 135.613 227.049 133.283C227.135 132.638 227.203 132.001 227.281 131.365C227.608 128.578 227.883 126.041 228.081 123.805V123.522C228.132 122.954 228.184 122.395 228.227 121.853C228.459 119.118 228.648 116.513 228.769 114.32C228.812 113.597 228.846 112.952 228.88 112.376C228.923 111.327 228.958 110.501 228.975 109.942C225.397 109.633 211.672 108.368 197.361 105.788C193.99 105.178 190.731 104.524 187.652 103.836C183.223 102.839 179.181 101.755 175.612 100.603C171.888 101.755 167.691 102.839 163.116 103.836C159.951 104.524 156.597 105.178 153.14 105.788C138.288 108.36 124.227 109.624 120.813 109.908Z" fill="#407BFF"/>
<path opacity="0.3" d="M180.339 147.771C184.983 143.288 185.36 136.144 181.18 131.815C177.001 127.485 169.848 127.61 165.204 132.093C160.56 136.576 160.183 143.72 164.363 148.049C168.543 152.379 175.695 152.255 180.339 147.771Z" fill="#407BFF"/>
<path opacity="0.3" d="M175.251 143.869H172.49H169.738L161.947 180.213H177.917L175.251 143.869Z" fill="#407BFF"/>
<g opacity="0.2">
<path opacity="0.2" d="M197.516 104.816H152.977C156.279 104.232 159.625 103.587 162.918 102.864H187.858C191.049 103.587 194.3 104.232 197.516 104.816Z" fill="#407BFF"/>
<path opacity="0.2" d="M229.706 114.328H119.454C119.505 113.606 119.557 112.961 119.617 112.376H229.809C229.783 112.961 229.749 113.606 229.706 114.328Z" fill="#407BFF"/>
<path opacity="0.2" d="M229.156 121.887C229.104 122.524 229.044 123.177 228.984 123.848H118.835C118.835 123.177 118.895 122.524 118.929 121.887H229.156Z" fill="#407BFF"/>
<path opacity="0.2" d="M228.184 131.408C228.106 132.053 228.029 132.706 227.943 133.36H118.525C118.525 132.706 118.525 132.053 118.568 131.408H228.184Z" fill="#407BFF"/>
<path opacity="0.2" d="M226.894 140.928C226.79 141.573 226.696 142.218 226.593 142.871H118.534C118.534 142.218 118.534 141.573 118.534 140.928H226.894Z" fill="#407BFF"/>
<path opacity="0.2" d="M225.32 150.439L224.933 152.392H118.895C118.895 151.738 118.818 151.084 118.792 150.439H225.32Z" fill="#407BFF"/>
<path opacity="0.2" d="M223.282 159.959L222.817 161.903H119.617C119.549 161.258 119.488 160.604 119.428 159.959H223.282Z" fill="#407BFF"/>
<path opacity="0.2" d="M220.822 169.471C220.616 170.125 220.392 170.778 220.143 171.423H120.959C120.795 170.778 120.666 170.125 120.555 169.471H220.822Z" fill="#407BFF"/>
<path opacity="0.2" d="M216.496 178.983C216.118 179.637 215.705 180.299 215.292 180.935H124.468C124.141 180.299 123.831 179.637 123.539 178.983H216.496Z" fill="#407BFF"/>
<path opacity="0.2" d="M209.625 188.503C209.066 189.157 208.507 189.81 207.905 190.447H130.505C130.006 189.81 129.533 189.157 129.069 188.503H209.625Z" fill="#407BFF"/>
<path opacity="0.2" d="M200.32 198.015C199.589 198.677 198.858 199.33 198.118 199.967H138.959C138.314 199.33 137.669 198.677 137.032 198.015H200.32Z" fill="#407BFF"/>
<path opacity="0.2" d="M188.572 207.526C187.643 208.197 186.74 208.851 185.837 209.479H149.898C149.09 208.851 148.273 208.197 147.438 207.526H188.572Z" fill="#407BFF"/>
<path opacity="0.2" d="M174.124 217.046C172.843 217.795 171.707 218.448 170.736 218.99H163.658C162.798 218.448 161.714 217.795 160.545 217.046H174.124Z" fill="#407BFF"/>
</g>
</g>
</svg>
