<svg width="431" height="285" viewBox="0 0 431 285" fill="none" xmlns="http://www.w3.org/2000/svg">
<path d="M213.927 285C331.814 285 427.381 279.406 427.381 272.506C427.381 265.606 331.814 260.013 213.927 260.013C96.0394 260.013 0.472656 265.606 0.472656 272.506C0.472656 279.406 96.0394 285 213.927 285Z" fill="#F5F5F5"/>
<path d="M218.606 120.652H197.975L207.883 89.209H228.514L218.606 120.652Z" fill="#407BFF"/>
<path opacity="0.2" d="M204.987 98.3915H225.618L228.514 89.209H207.883L204.987 98.3915Z" fill="black"/>
<path d="M234.932 118.655H195.454V123.434H234.932V118.655Z" fill="#407BFF"/>
<path opacity="0.5" d="M234.932 118.655H195.454V123.434H234.932V118.655Z" fill="white"/>
<path opacity="0.6" d="M215.193 118.655H195.454V123.434H215.193V118.655Z" fill="white"/>
<path d="M387.903 82.3777L380.714 0L268.19 9.94406H154.797L40.5343 0L38.3325 2.20734L45.5214 84.5851L159.784 94.5291H273.177L385.701 84.5851L387.903 82.3777Z" fill="#407BFF"/>
<path opacity="0.2" d="M387.902 82.3777L380.713 0L268.19 9.94406H154.797L40.5337 0L47.7226 82.3777L161.985 92.3218H275.379L387.902 82.3777Z" fill="white"/>
<path opacity="0.8" d="M377.723 3.62938L271.748 12.9243L278.359 88.6776L384.334 79.3827L377.723 3.62938Z" fill="white"/>
<path opacity="0.5" d="M291.639 20.5939C291.485 20.6076 291.329 20.5907 291.181 20.5441C291.033 20.4975 290.895 20.422 290.776 20.3221C290.657 20.2222 290.559 20.0997 290.487 19.9617C290.415 19.8237 290.371 19.6728 290.357 19.5178C290.343 19.3627 290.36 19.2064 290.407 19.0579C290.453 18.9093 290.528 18.7714 290.628 18.652C290.728 18.5326 290.85 18.4341 290.987 18.362C291.125 18.2899 291.276 18.2458 291.43 18.232L318.083 15.8812C318.237 15.866 318.393 15.8813 318.541 15.9263C318.689 15.9713 318.826 16.0451 318.946 16.1435C319.066 16.2419 319.165 16.3629 319.238 16.4997C319.311 16.6365 319.356 16.7864 319.371 16.9407C319.386 17.0951 319.371 17.2509 319.326 17.3993C319.281 17.5478 319.208 17.6859 319.11 17.8058C319.011 17.9257 318.891 18.0251 318.754 18.0982C318.618 18.1713 318.468 18.2168 318.314 18.232L291.639 20.5939Z" fill="#263238"/>
<g opacity="0.5">
<path opacity="0.5" d="M291.639 20.5939C291.485 20.6076 291.329 20.5907 291.181 20.5441C291.033 20.4975 290.895 20.422 290.776 20.3221C290.657 20.2222 290.559 20.0997 290.487 19.9617C290.415 19.8237 290.371 19.6728 290.357 19.5178C290.343 19.3627 290.36 19.2064 290.407 19.0579C290.453 18.9093 290.528 18.7714 290.628 18.652C290.728 18.5326 290.85 18.4341 290.987 18.362C291.125 18.2899 291.276 18.2458 291.43 18.232L318.083 15.8812C318.237 15.866 318.393 15.8813 318.541 15.9263C318.689 15.9713 318.826 16.0451 318.946 16.1435C319.066 16.2419 319.165 16.3629 319.238 16.4997C319.311 16.6365 319.356 16.7864 319.371 16.9407C319.386 17.0951 319.371 17.2509 319.326 17.3993C319.281 17.5478 319.208 17.6859 319.11 17.8058C319.011 17.9257 318.891 18.0251 318.754 18.0982C318.618 18.1713 318.468 18.2168 318.314 18.232L291.639 20.5939Z" fill="white"/>
</g>
<path opacity="0.5" d="M335.004 16.7652C334.85 16.779 334.694 16.7621 334.545 16.7155C334.397 16.6688 334.26 16.5934 334.141 16.4935C334.022 16.3936 333.923 16.2711 333.851 16.1331C333.779 15.9951 333.735 15.8442 333.722 15.6892C333.708 15.5341 333.725 15.3778 333.771 15.2292C333.818 15.0807 333.893 14.9428 333.993 14.8234C334.092 14.704 334.215 14.6055 334.352 14.5334C334.49 14.4613 334.64 14.4171 334.795 14.4034L361.448 12.0526C361.75 12.0414 362.046 12.1474 362.272 12.3486C362.499 12.5498 362.64 12.8308 362.665 13.1332C362.691 13.4357 362.599 13.7363 362.409 13.9728C362.22 14.2093 361.946 14.3635 361.646 14.4034L335.004 16.7652Z" fill="#263238"/>
<g opacity="0.5">
<path opacity="0.5" d="M335.004 16.7652C334.85 16.779 334.694 16.7621 334.545 16.7155C334.397 16.6688 334.26 16.5934 334.141 16.4935C334.022 16.3936 333.923 16.2711 333.851 16.1331C333.779 15.9951 333.735 15.8442 333.722 15.6892C333.708 15.5341 333.725 15.3778 333.771 15.2292C333.818 15.0807 333.893 14.9428 333.993 14.8234C334.092 14.704 334.215 14.6055 334.352 14.5334C334.49 14.4613 334.64 14.4171 334.795 14.4034L361.448 12.0526C361.75 12.0414 362.046 12.1474 362.272 12.3486C362.499 12.5498 362.64 12.8308 362.665 13.1332C362.691 13.4357 362.599 13.7363 362.409 13.9728C362.22 14.2093 361.946 14.3635 361.646 14.4034L335.004 16.7652Z" fill="white"/>
</g>
<path d="M307.007 49.8645C314.491 49.5357 320.289 43.1428 319.959 35.5857C319.628 28.0286 313.294 22.1689 305.81 22.4978C298.327 22.8267 292.528 29.2195 292.859 36.7766C293.189 44.3338 299.523 50.1934 307.007 49.8645Z" fill="#407BFF"/>
<g opacity="0.9">
<path opacity="0.9" d="M300.557 43.2415L299.016 43.3739C298.824 43.3892 298.635 43.3282 298.489 43.2042C298.342 43.0802 298.251 42.9032 298.234 42.7117L297.595 35.4055C297.586 35.3112 297.596 35.216 297.624 35.1255C297.651 35.035 297.697 34.9509 297.757 34.878C297.818 34.8051 297.892 34.745 297.976 34.701C298.059 34.6571 298.151 34.6302 298.245 34.6219L299.786 34.4784C299.977 34.4631 300.167 34.5241 300.313 34.6481C300.459 34.7722 300.551 34.9492 300.568 35.1406L301.206 42.4469C301.225 42.6385 301.167 42.8296 301.045 42.9785C300.923 43.1274 300.748 43.222 300.557 43.2415Z" fill="white"/>
<path opacity="0.9" d="M302.571 33.9374C303.562 32.9552 306.05 30.1739 306.039 27.183C306.04 26.8618 306.145 26.5495 306.336 26.2921C306.528 26.0348 306.797 25.8459 307.104 25.7532C307.411 25.6606 307.739 25.6691 308.041 25.7774C308.343 25.8858 308.602 26.0883 308.78 26.3553C309.33 27.3154 309.462 29.1365 308.472 32.5358L312.281 32.2047C312.78 32.1608 313.281 32.2651 313.721 32.5045C314.162 32.7439 314.522 33.1079 314.758 33.5512C315.043 34.0808 315.136 34.6931 315.022 35.2839L313.921 41.0451C313.802 41.6623 313.462 42.2147 312.966 42.5988C312.469 42.9828 311.85 43.172 311.224 43.131L303.947 42.6123C303.665 42.5833 303.401 42.4577 303.201 42.2567C303 42.0556 302.875 41.7914 302.846 41.5086L302.274 34.9418C302.245 34.7627 302.257 34.5796 302.309 34.4058C302.36 34.232 302.45 34.072 302.571 33.9374Z" fill="white"/>
</g>
<path opacity="0.9" d="M350.387 46.0158C357.87 45.6856 363.668 39.2917 363.336 31.7347C363.004 24.1776 356.669 18.319 349.185 18.6492C341.702 18.9794 335.904 25.3733 336.236 32.9303C336.568 40.4874 342.903 46.3459 350.387 46.0158Z" fill="white"/>
<path d="M342.776 26.389L341.235 26.5214C341.14 26.5297 341.047 26.5569 340.962 26.6014C340.876 26.646 340.801 26.7069 340.74 26.7808C340.678 26.8547 340.632 26.94 340.604 27.0319C340.575 27.1237 340.565 27.2203 340.575 27.3161L341.213 34.6113C341.22 34.7071 341.246 34.8005 341.289 34.8862C341.332 34.972 341.392 35.0483 341.464 35.1109C341.537 35.1734 341.621 35.221 341.712 35.2508C341.803 35.2806 341.899 35.2921 341.995 35.2845L343.536 35.1411C343.632 35.1328 343.725 35.1056 343.81 35.061C343.895 35.0165 343.97 34.9556 344.031 34.8817C344.093 34.8078 344.139 34.7225 344.167 34.6306C344.196 34.5387 344.206 34.4422 344.197 34.3464L343.558 27.0512C343.551 26.9559 343.525 26.8629 343.482 26.7777C343.439 26.6925 343.379 26.6169 343.306 26.5552C343.233 26.4935 343.149 26.447 343.058 26.4185C342.967 26.3899 342.871 26.3799 342.776 26.389Z" fill="#407BFF"/>
<path d="M346.376 35.1851C347.477 35.9908 350.45 38.2864 350.956 41.2332C351.012 41.5518 351.169 41.8439 351.404 42.0659C351.638 42.2878 351.938 42.4279 352.259 42.4651C352.579 42.5023 352.903 42.4347 353.182 42.2724C353.461 42.1101 353.681 41.8617 353.808 41.5643C354.182 40.5269 353.995 38.7058 352.431 35.5383L356.23 35.1962C356.727 35.1491 357.2 34.9582 357.59 34.6466C357.981 34.3351 358.273 33.9163 358.431 33.4413C358.635 32.8742 358.635 32.2537 358.431 31.6865L356.34 26.1682C356.116 25.581 355.686 25.0963 355.13 24.8055C354.574 24.5147 353.931 24.438 353.323 24.5899L346.244 26.3779C345.959 26.4503 345.709 26.6224 345.54 26.8633C345.37 27.1041 345.292 27.3977 345.32 27.6912L345.892 34.247C345.899 34.4296 345.945 34.6084 346.029 34.7706C346.113 34.9328 346.232 35.0744 346.376 35.1851Z" fill="#407BFF"/>
<path d="M302.923 70.5544L294.885 71.2651L295.705 80.588L303.743 79.8773L302.923 70.5544Z" fill="#407BFF"/>
<path opacity="0.9" d="M311.143 71.8738L303.105 72.5845L303.746 79.8735L311.784 79.1628L311.143 71.8738Z" fill="white"/>
<path opacity="0.9" d="M326.387 60.9797L318.349 61.6904L319.823 78.4453L327.861 77.7346L326.387 60.9797Z" fill="white"/>
<path opacity="0.9" d="M342.297 57.5652L334.259 58.2759L335.909 77.0316L343.947 76.3209L342.297 57.5652Z" fill="white"/>
<path opacity="0.9" d="M358.736 60.3274L350.698 61.0381L351.98 75.6161L360.019 74.9054L358.736 60.3274Z" fill="white"/>
<path d="M318.488 63.1965L310.449 63.9072L311.791 79.1559L319.829 78.4452L318.488 63.1965Z" fill="#407BFF"/>
<path d="M334.078 56.2771L326.04 56.9878L327.866 77.7445L335.904 77.0338L334.078 56.2771Z" fill="#407BFF"/>
<path d="M350.503 58.8523L342.465 59.563L343.939 76.3179L351.977 75.6071L350.503 58.8523Z" fill="#407BFF"/>
<path d="M365.764 48.156L357.726 48.8667L360.016 74.9005L368.054 74.1898L365.764 48.156Z" fill="#407BFF"/>
<path opacity="0.8" d="M44.1455 3.59717L50.7619 79.3529L158.364 88.723L151.759 12.9673L44.1455 3.59717Z" fill="white"/>
<path d="M121 38.6728L63.2573 33.6842C62.0444 33.5351 60.9155 32.9857 60.0484 32.1224C59.1814 31.2592 58.6255 30.1312 58.4684 28.9164L57.7418 20.5726C57.6704 20.0281 57.7254 19.4744 57.9026 18.9547C58.0798 18.4351 58.3744 17.9635 58.7633 17.5767C59.1523 17.19 59.6251 16.8986 60.145 16.7252C60.6648 16.5519 61.2175 16.5013 61.7601 16.5774L119.514 21.5439C120.73 21.6803 121.865 22.2259 122.733 23.0918C123.6 23.9576 124.15 25.0926 124.291 26.3117L125.029 34.6554C125.1 35.2018 125.044 35.7572 124.867 36.2786C124.689 36.7999 124.394 37.2732 124.004 37.6617C123.614 38.0503 123.141 38.3436 122.62 38.5189C122.099 38.6943 121.544 38.7469 121 38.6728Z" fill="white"/>
<path d="M72.8125 25.9584C72.8943 26.6094 72.8258 27.2706 72.6123 27.8908C72.3988 28.5111 72.0459 29.0738 71.581 29.5356C71.1161 29.9975 70.5515 30.346 69.9309 30.5544C69.3102 30.7627 68.6501 30.8253 68.0015 30.7373C66.5455 30.5741 65.1871 29.923 64.1462 28.8894C63.1052 27.8559 62.4427 26.5004 62.2658 25.0424C62.1841 24.3899 62.2529 23.7274 62.467 23.1058C62.6811 22.4842 63.0347 21.9203 63.5007 21.4575C63.9666 20.9946 64.5324 20.6452 65.1543 20.4363C65.7763 20.2274 66.4378 20.1645 67.0878 20.2525C68.5435 20.4185 69.9006 21.0722 70.9396 22.1078C71.9785 23.1433 72.6384 24.5001 72.8125 25.9584Z" fill="#407BFF"/>
<path d="M79.5392 23.6292C79.2238 23.5923 78.9299 23.4504 78.7044 23.2263C78.4789 23.0023 78.3348 22.7089 78.2951 22.3931C78.2745 22.2462 78.2894 22.0963 78.3385 21.9563C78.3877 21.8163 78.4696 21.6902 78.5775 21.5885C78.6854 21.4868 78.816 21.4126 78.9585 21.3721C79.1009 21.3316 79.251 21.326 79.3961 21.3557L114.79 24.4349C115.106 24.47 115.401 24.6113 115.627 24.8357C115.853 25.0601 115.996 25.3545 116.034 25.671C116.055 25.818 116.04 25.9678 115.991 26.1078C115.942 26.2479 115.86 26.374 115.752 26.4757C115.644 26.5773 115.513 26.6515 115.371 26.692C115.228 26.7326 115.078 26.7382 114.933 26.7085L79.5392 23.6292Z" fill="#263238"/>
<path d="M80.255 31.8407C79.9397 31.8037 79.6458 31.6618 79.4203 31.4378C79.1948 31.2137 79.0507 30.9204 79.011 30.6046C78.9903 30.4576 79.0052 30.3078 79.0544 30.1678C79.1035 30.0277 79.1855 29.9016 79.2933 29.7999C79.4012 29.6983 79.5319 29.624 79.6743 29.5835C79.8168 29.543 79.9668 29.5374 80.1119 29.5671L100.842 31.3661C101.158 31.4012 101.453 31.5424 101.679 31.7668C101.905 31.9913 102.048 32.2857 102.086 32.6022C102.104 32.7438 102.09 32.8877 102.043 33.0227C101.997 33.1577 101.921 33.2802 101.819 33.3806C101.718 33.481 101.595 33.5566 101.46 33.6016C101.325 33.6465 101.181 33.6595 101.04 33.6397L80.255 31.8407Z" fill="#263238"/>
<path d="M79.9027 27.7347C79.5866 27.6996 79.2917 27.5584 79.0659 27.334C78.84 27.1095 78.6965 26.8151 78.6587 26.4986C78.638 26.3516 78.6529 26.2018 78.7021 26.0618C78.7512 25.9218 78.8332 25.7956 78.941 25.694C79.0489 25.5923 79.1796 25.5181 79.322 25.4776C79.4645 25.4371 79.6145 25.4314 79.7596 25.4612L109.781 28.0768C110.097 28.1138 110.39 28.2557 110.616 28.4797C110.841 28.7038 110.986 28.9972 111.025 29.3129C111.044 29.4545 111.029 29.5984 110.983 29.7334C110.937 29.8685 110.86 29.9909 110.759 30.0914C110.657 30.1918 110.534 30.2674 110.399 30.3123C110.264 30.3573 110.12 30.3703 109.979 30.3504L79.9027 27.7347Z" fill="#263238"/>
<g opacity="0.5">
<path opacity="0.5" d="M79.5392 23.6292C79.2238 23.5923 78.9299 23.4504 78.7044 23.2263C78.4789 23.0023 78.3348 22.7089 78.2951 22.3931C78.2745 22.2462 78.2894 22.0963 78.3385 21.9563C78.3877 21.8163 78.4696 21.6902 78.5775 21.5885C78.6854 21.4868 78.816 21.4126 78.9585 21.3721C79.1009 21.3316 79.251 21.326 79.3961 21.3557L114.79 24.4349C115.106 24.47 115.401 24.6113 115.627 24.8357C115.853 25.0601 115.996 25.3545 116.034 25.671C116.055 25.818 116.04 25.9678 115.991 26.1078C115.942 26.2479 115.86 26.374 115.752 26.4757C115.644 26.5773 115.513 26.6515 115.371 26.692C115.228 26.7326 115.078 26.7382 114.933 26.7085L79.5392 23.6292Z" fill="white"/>
<path opacity="0.5" d="M80.2548 31.8407C79.9394 31.8037 79.6455 31.6618 79.42 31.4378C79.1945 31.2137 79.0504 30.9204 79.0107 30.6046C78.9901 30.4576 79.005 30.3078 79.0541 30.1678C79.1033 30.0277 79.1852 29.9016 79.2931 29.7999C79.401 29.6983 79.5316 29.624 79.6741 29.5835C79.8165 29.543 79.9666 29.5374 80.1116 29.5671L100.842 31.3661C101.158 31.4012 101.453 31.5424 101.679 31.7668C101.904 31.9913 102.048 32.2857 102.086 32.6022C102.104 32.7438 102.089 32.8877 102.043 33.0227C101.997 33.1577 101.92 33.2802 101.819 33.3806C101.718 33.481 101.595 33.5566 101.46 33.6016C101.325 33.6465 101.181 33.6595 101.04 33.6397L80.2548 31.8407Z" fill="white"/>
<path opacity="0.5" d="M79.9025 27.7342C79.5864 27.6991 79.2915 27.5579 79.0656 27.3335C78.8398 27.109 78.6962 26.8147 78.6584 26.4981C78.6378 26.3511 78.6527 26.2013 78.7018 26.0613C78.751 25.9213 78.8329 25.7951 78.9408 25.6935C79.0487 25.5918 79.1793 25.5176 79.3218 25.4771C79.4642 25.4366 79.6143 25.431 79.7593 25.4607L109.781 28.0764C110.096 28.1133 110.39 28.2552 110.616 28.4793C110.841 28.7033 110.985 28.9967 111.025 29.3125C111.043 29.454 111.029 29.5979 110.983 29.733C110.936 29.868 110.86 29.9905 110.758 30.0909C110.657 30.1913 110.534 30.2669 110.399 30.3118C110.264 30.3568 110.12 30.3698 109.979 30.3499L79.9025 27.7342Z" fill="white"/>
</g>
<path d="M124.016 13.6519L117.268 13.1332C117.06 13.1098 116.851 13.1339 116.654 13.2036C116.458 13.2733 116.28 13.3868 116.133 13.5356C115.987 13.6844 115.876 13.8646 115.81 14.0625C115.743 14.2605 115.722 14.4711 115.748 14.6783L116.299 20.3181C116.362 20.7802 116.577 21.208 116.91 21.5339C117.243 21.8597 117.675 22.0649 118.137 22.117L120.097 22.2716L121.055 23.6511C121.112 23.7582 121.196 23.8487 121.298 23.9143C121.401 23.9799 121.518 24.0184 121.639 24.0261C121.76 24.0338 121.881 24.0106 121.991 23.9585C122.1 23.9064 122.195 23.8272 122.266 23.7284L122.948 22.4702L124.897 22.6247C125.104 22.6504 125.315 22.6278 125.513 22.5589C125.71 22.49 125.889 22.3765 126.036 22.2272C126.183 22.0779 126.293 21.8967 126.359 21.6977C126.425 21.4988 126.445 21.2873 126.416 21.0796L125.866 15.4509C125.802 14.9871 125.585 14.558 125.25 14.232C124.915 13.9059 124.48 13.7018 124.016 13.6519Z" fill="#407BFF"/>
<g opacity="0.9">
<path opacity="0.9" d="M118.819 18.2327C118.332 17.801 118.013 17.2109 117.917 16.5662C117.871 16.3807 117.873 16.1863 117.925 16.0022C117.976 15.8181 118.074 15.6505 118.21 15.5159C118.345 15.3812 118.513 15.2842 118.697 15.2342C118.881 15.1842 119.075 15.183 119.26 15.2307C120.096 15.308 120.361 15.7053 120.944 16.3344C121.385 15.8267 121.627 15.4735 122.463 15.5398C122.876 15.5655 123.266 15.741 123.56 16.0333C123.853 16.3257 124.031 16.7151 124.06 17.1291C124.081 17.4177 124.036 17.7073 123.927 17.9754C123.818 18.2434 123.649 18.4826 123.432 18.6742L121.329 20.7491L118.819 18.2327Z" fill="white"/>
</g>
<path d="M136.786 60.1056L79.0328 55.0728C77.8156 54.9349 76.6805 54.3891 75.8113 53.5238C74.9422 52.6584 74.3899 51.5243 74.2439 50.305L73.5173 41.9723C73.4482 41.4268 73.5051 40.8727 73.6837 40.3527C73.8623 39.8328 74.1577 39.361 74.5472 38.9738C74.9366 38.5865 75.4097 38.2942 75.9297 38.1195C76.4498 37.9448 77.003 37.8923 77.5466 37.966L135.289 42.9987C136.505 43.1342 137.64 43.6779 138.509 44.5413C139.379 45.4048 139.932 46.5375 140.078 47.7555L140.805 56.0993C140.876 56.6442 140.82 57.1981 140.643 57.7182C140.466 58.2382 140.172 58.7104 139.783 59.0979C139.394 59.4854 138.922 59.7779 138.402 59.9526C137.882 60.1274 137.329 60.1797 136.786 60.1056Z" fill="white"/>
<path d="M88.5777 47.4143C88.6614 48.0661 88.5943 48.7286 88.3816 49.3502C88.1689 49.9719 87.8163 50.5361 87.3511 50.9993C86.886 51.4624 86.3207 51.812 85.6991 52.0209C85.0776 52.2299 84.4164 52.2926 83.7668 52.2042C82.3111 52.0382 80.9539 51.3845 79.915 50.3489C78.876 49.3134 78.2161 47.9566 78.0421 46.4982C77.9602 45.8472 78.0287 45.1861 78.2423 44.5659C78.4558 43.9456 78.8086 43.3828 79.2736 42.921C79.7385 42.4592 80.3031 42.1106 80.9237 41.9023C81.5443 41.6939 82.2044 41.6314 82.853 41.7194C84.3085 41.8811 85.6665 42.532 86.7059 43.5661C87.7454 44.6001 88.4051 45.9565 88.5777 47.4143Z" fill="#407BFF"/>
<path d="M95.3263 45.0623C95.0109 45.0254 94.717 44.8835 94.4915 44.6595C94.266 44.4354 94.1219 44.142 94.0823 43.8262C94.0616 43.6793 94.0765 43.5295 94.1256 43.3894C94.1748 43.2494 94.2567 43.1233 94.3646 43.0216C94.4725 42.9199 94.6032 42.8457 94.7456 42.8052C94.888 42.7647 95.0381 42.7591 95.1832 42.7888L130.522 45.8239C130.838 45.8609 131.131 46.0027 131.357 46.2268C131.582 46.4508 131.727 46.7442 131.766 47.06C131.787 47.207 131.772 47.3568 131.723 47.4968C131.674 47.6368 131.592 47.763 131.484 47.8646C131.376 47.9663 131.245 48.0405 131.103 48.081C130.96 48.1215 130.81 48.1272 130.665 48.0974L95.3263 45.0623Z" fill="#263238"/>
<path d="M96.0418 53.2743C95.7256 53.2349 95.4314 53.0909 95.2061 52.865C94.9807 52.639 94.8371 52.3442 94.7978 52.0271C94.7817 51.886 94.7978 51.7431 94.8448 51.6091C94.8919 51.4751 94.9686 51.3536 95.0693 51.2537C95.17 51.1538 95.2921 51.0781 95.4262 51.0324C95.5603 50.9867 95.7031 50.972 95.8437 50.9897L116.574 52.7997C116.89 52.8348 117.185 52.976 117.411 53.2004C117.636 53.4249 117.78 53.7193 117.818 54.0358C117.836 54.1774 117.822 54.3213 117.775 54.4563C117.729 54.5913 117.652 54.7138 117.551 54.8142C117.45 54.9146 117.327 54.9902 117.192 55.0352C117.057 55.0801 116.913 55.0931 116.772 55.0733L96.0418 53.2743Z" fill="#263238"/>
<path d="M95.6892 49.1346C95.3732 49.0995 95.0782 48.9583 94.8524 48.7339C94.6265 48.5095 94.483 48.2151 94.4452 47.8985C94.4269 47.757 94.4414 47.6131 94.4876 47.478C94.5339 47.343 94.6106 47.2205 94.7118 47.1201C94.813 47.0197 94.936 46.9441 95.0712 46.8992C95.2064 46.8542 95.3501 46.8412 95.4911 46.8611L125.513 49.4657C125.827 49.5032 126.119 49.6454 126.343 49.8696C126.566 50.0938 126.708 50.387 126.746 50.7018C126.775 50.8473 126.77 50.9977 126.729 51.1405C126.689 51.2833 126.615 51.4143 126.514 51.5224C126.412 51.6306 126.286 51.7128 126.147 51.762C126.007 51.8113 125.858 51.8262 125.711 51.8055L95.6892 49.1346Z" fill="#263238"/>
<g opacity="0.5">
<path opacity="0.5" d="M95.3263 45.0623C95.0109 45.0254 94.717 44.8835 94.4915 44.6595C94.266 44.4354 94.1219 44.142 94.0823 43.8262C94.0616 43.6793 94.0765 43.5295 94.1256 43.3894C94.1748 43.2494 94.2567 43.1233 94.3646 43.0216C94.4725 42.9199 94.6032 42.8457 94.7456 42.8052C94.888 42.7647 95.0381 42.7591 95.1832 42.7888L130.522 45.8239C130.838 45.8609 131.131 46.0027 131.357 46.2268C131.582 46.4508 131.727 46.7442 131.766 47.06C131.787 47.207 131.772 47.3568 131.723 47.4968C131.674 47.6368 131.592 47.763 131.484 47.8646C131.376 47.9663 131.245 48.0405 131.103 48.081C130.96 48.1215 130.81 48.1272 130.665 48.0974L95.3263 45.0623Z" fill="white"/>
<path opacity="0.5" d="M96.0418 53.2743C95.7256 53.2349 95.4314 53.0909 95.2061 52.865C94.9807 52.639 94.8371 52.3442 94.7978 52.0271C94.7817 51.886 94.7978 51.7431 94.8448 51.6091C94.8919 51.4751 94.9686 51.3536 95.0693 51.2537C95.17 51.1538 95.2921 51.0781 95.4262 51.0324C95.5603 50.9867 95.7031 50.972 95.8437 50.9897L116.574 52.7997C116.89 52.8348 117.185 52.976 117.411 53.2004C117.636 53.4249 117.78 53.7193 117.818 54.0358C117.836 54.1774 117.822 54.3213 117.775 54.4563C117.729 54.5913 117.652 54.7138 117.551 54.8142C117.45 54.9146 117.327 54.9902 117.192 55.0352C117.057 55.0801 116.913 55.0931 116.772 55.0733L96.0418 53.2743Z" fill="white"/>
<path opacity="0.5" d="M95.6897 49.1337C95.3737 49.0986 95.0787 48.9573 94.8529 48.7329C94.627 48.5085 94.4835 48.2141 94.4457 47.8976C94.4273 47.756 94.4419 47.6121 94.4881 47.4771C94.5344 47.342 94.6111 47.2196 94.7123 47.1192C94.8135 47.0187 94.9365 46.9431 95.0717 46.8982C95.2068 46.8533 95.3505 46.8402 95.4916 46.8601L125.513 49.4648C125.827 49.5022 126.12 49.6444 126.343 49.8687C126.567 50.0929 126.709 50.386 126.746 50.7009C126.776 50.8463 126.77 50.9967 126.73 51.1395C126.689 51.2823 126.615 51.4133 126.514 51.5215C126.413 51.6296 126.287 51.7118 126.147 51.761C126.007 51.8103 125.858 51.8252 125.711 51.8045L95.6897 49.1337Z" fill="white"/>
</g>
<path d="M139.803 35.0856L133.054 34.5669C132.847 34.5413 132.636 34.5638 132.439 34.6327C132.241 34.7017 132.062 34.8152 131.915 34.9645C131.769 35.1138 131.658 35.2949 131.592 35.4939C131.526 35.6929 131.507 35.9043 131.535 36.112L132.086 41.7407C132.145 42.2056 132.358 42.637 132.692 42.9654C133.025 43.2938 133.459 43.5 133.924 43.5508L135.884 43.7053L136.842 45.0738C136.897 45.1816 136.979 45.2733 137.079 45.3402C137.18 45.4071 137.296 45.4469 137.417 45.4557C137.537 45.4646 137.658 45.4423 137.768 45.3908C137.877 45.3394 137.971 45.2606 138.042 45.1621L138.735 43.8929L140.673 44.0474C140.878 44.069 141.085 44.044 141.278 43.974C141.472 43.9041 141.648 43.7911 141.792 43.6435C141.936 43.4959 142.044 43.3176 142.11 43.1219C142.176 42.9262 142.196 42.7181 142.17 42.5133L141.609 36.8956C141.555 36.4343 141.347 36.0046 141.019 35.6761C140.692 35.3477 140.263 35.1396 139.803 35.0856Z" fill="#407BFF"/>
<g opacity="0.9">
<path opacity="0.9" d="M134.607 39.6548C134.113 39.2234 133.793 38.6274 133.704 37.9773C133.66 37.7925 133.665 37.5995 133.717 37.417C133.769 37.2345 133.868 37.0687 134.003 36.9355C134.138 36.8023 134.305 36.7063 134.488 36.6568C134.671 36.6073 134.863 36.6059 135.047 36.6529C135.873 36.7191 136.148 37.1274 136.731 37.7565C137.161 37.2488 137.414 36.8846 138.24 36.9619C138.655 36.9827 139.049 37.1562 139.345 37.4493C139.642 37.7424 139.82 38.1346 139.847 38.5512C139.864 38.8377 139.817 39.1245 139.708 39.3901C139.599 39.6557 139.432 39.8933 139.219 40.0853L137.117 42.1712L134.607 39.6548Z" fill="white"/>
</g>
<path d="M129.245 80.8657L71.4916 75.8329C70.2737 75.6969 69.1375 75.1517 68.268 74.286C67.3985 73.4203 66.8468 72.2851 66.7027 71.0651L65.9761 62.7324C65.9051 62.1875 65.9603 61.6335 66.1375 61.1134C66.3147 60.5934 66.609 60.1213 66.9977 59.7338C67.3864 59.3463 67.8589 59.0538 68.3786 58.879C68.8983 58.7042 69.4512 58.6519 69.9944 58.7261L127.748 63.7588C128.966 63.8948 130.102 64.44 130.971 65.3057C131.841 66.1714 132.393 67.3066 132.537 68.5267L133.263 76.8593C133.334 77.4042 133.279 77.9582 133.102 78.4783C132.925 78.9983 132.63 79.4704 132.242 79.858C131.853 80.2455 131.381 80.538 130.861 80.7127C130.341 80.8875 129.788 80.9398 129.245 80.8657Z" fill="white"/>
<path d="M81.0364 68.1731C81.1201 68.8249 81.053 69.4873 80.8403 70.109C80.6276 70.7307 80.275 71.2949 79.8099 71.7581C79.3447 72.2212 78.7795 72.5708 78.1579 72.7797C77.5363 72.9887 76.8751 73.0514 76.2255 72.963C74.7698 72.7969 73.4127 72.1432 72.3737 71.1077C71.3348 70.0721 70.6748 68.7154 70.5008 67.257C70.419 66.606 70.4875 65.9449 70.701 65.3246C70.9145 64.7044 71.2674 64.1416 71.7323 63.6798C72.1972 63.218 72.7618 62.8694 73.3824 62.6611C74.0031 62.4527 74.6632 62.3901 75.3117 62.4782C76.7658 62.6437 78.1217 63.2958 79.1604 64.3292C80.1991 65.3625 80.8601 66.7167 81.0364 68.1731Z" fill="#407BFF"/>
<path d="M87.7849 65.8231C87.4689 65.788 87.1739 65.6468 86.9481 65.4224C86.7222 65.198 86.5787 64.9035 86.5409 64.587C86.5226 64.4454 86.5371 64.3015 86.5833 64.1665C86.6296 64.0315 86.7063 63.909 86.8075 63.8086C86.9088 63.7082 87.0317 63.6326 87.1669 63.5876C87.3021 63.5427 87.4457 63.5297 87.5868 63.5496L122.981 66.6288C123.301 66.6673 123.599 66.8139 123.825 67.0446C124.051 67.2753 124.192 67.5763 124.225 67.898C124.243 68.0396 124.229 68.1835 124.182 68.3185C124.136 68.4535 124.059 68.576 123.958 68.6764C123.857 68.7768 123.734 68.8525 123.599 68.8974C123.464 68.9423 123.32 68.9554 123.179 68.9355L87.7849 65.8231Z" fill="#263238"/>
<path d="M88.5007 74.0342C88.1854 73.9972 87.8915 73.8554 87.666 73.6313C87.4405 73.4072 87.2964 73.1139 87.2567 72.7981C87.2387 72.6561 87.2535 72.5119 87.2997 72.3765C87.3459 72.2411 87.4224 72.1181 87.5233 72.017C87.6243 71.9158 87.747 71.8391 87.882 71.7927C88.0171 71.7464 88.1609 71.7316 88.3025 71.7496L116.849 74.2329C117.164 74.2698 117.458 74.4117 117.684 74.6358C117.909 74.8598 118.053 75.1532 118.093 75.469C118.114 75.616 118.099 75.7658 118.05 75.9058C118 76.0458 117.919 76.1719 117.811 76.2736C117.703 76.3753 117.572 76.4495 117.43 76.49C117.287 76.5305 117.137 76.5361 116.992 76.5064L88.5007 74.0342Z" fill="#263238"/>
<path d="M88.1371 69.9286C87.8217 69.8916 87.5278 69.7497 87.3023 69.5257C87.0768 69.3016 86.9327 69.0083 86.893 68.6925C86.8724 68.5455 86.8873 68.3957 86.9365 68.2556C86.9856 68.1156 87.0675 67.9895 87.1754 67.8878C87.2833 67.7861 87.414 67.7119 87.5564 67.6714C87.6988 67.6309 87.8489 67.6253 87.994 67.655L113.579 69.8623C113.894 69.9012 114.186 70.0436 114.412 70.2673C114.637 70.491 114.781 70.7834 114.823 71.0984C114.853 71.2498 114.846 71.4064 114.801 71.5542C114.756 71.7019 114.676 71.8363 114.567 71.9455C114.458 72.0547 114.324 72.1352 114.177 72.18C114.029 72.2247 113.873 72.2323 113.722 72.2021L88.1371 69.9286Z" fill="#263238"/>
<g opacity="0.5">
<path opacity="0.5" d="M87.7849 65.8231C87.4689 65.788 87.1739 65.6468 86.9481 65.4224C86.7222 65.198 86.5787 64.9035 86.5409 64.587C86.5226 64.4454 86.5371 64.3015 86.5833 64.1665C86.6296 64.0315 86.7063 63.909 86.8075 63.8086C86.9088 63.7082 87.0317 63.6326 87.1669 63.5876C87.3021 63.5427 87.4457 63.5297 87.5868 63.5496L122.981 66.6288C123.301 66.6673 123.599 66.8139 123.825 67.0446C124.051 67.2753 124.192 67.5763 124.225 67.898C124.243 68.0396 124.229 68.1835 124.182 68.3185C124.136 68.4535 124.059 68.576 123.958 68.6764C123.857 68.7768 123.734 68.8525 123.599 68.8974C123.464 68.9423 123.32 68.9554 123.179 68.9355L87.7849 65.8231Z" fill="white"/>
<path opacity="0.5" d="M88.5005 74.0342C88.1851 73.9972 87.8912 73.8554 87.6657 73.6313C87.4402 73.4072 87.2961 73.1139 87.2564 72.7981C87.2385 72.6561 87.2532 72.5119 87.2994 72.3765C87.3457 72.2411 87.4222 72.1181 87.5231 72.017C87.624 71.9158 87.7467 71.8391 87.8818 71.7927C88.0168 71.7464 88.1607 71.7316 88.3023 71.7496L116.849 74.2329C117.164 74.2698 117.458 74.4117 117.683 74.6358C117.909 74.8598 118.053 75.1532 118.093 75.469C118.113 75.616 118.098 75.7658 118.049 75.9058C118 76.0458 117.918 76.1719 117.81 76.2736C117.703 76.3753 117.572 76.4495 117.429 76.49C117.287 76.5305 117.137 76.5361 116.992 76.5064L88.5005 74.0342Z" fill="white"/>
<path opacity="0.5" d="M88.1371 69.9281C87.8217 69.8911 87.5278 69.7492 87.3023 69.5252C87.0768 69.3011 86.9327 69.0078 86.893 68.692C86.8724 68.545 86.8873 68.3952 86.9365 68.2552C86.9856 68.1151 87.0675 67.989 87.1754 67.8873C87.2833 67.7857 87.414 67.7115 87.5564 67.6709C87.6988 67.6304 87.8489 67.6248 87.994 67.6545L113.579 69.8619C113.894 69.9007 114.186 70.0431 114.412 70.2668C114.637 70.4906 114.781 70.7829 114.823 71.098C114.853 71.2494 114.846 71.4059 114.801 71.5537C114.756 71.7014 114.676 71.8358 114.567 71.945C114.458 72.0542 114.324 72.1347 114.177 72.1795C114.029 72.2243 113.873 72.2319 113.722 72.2016L88.1371 69.9281Z" fill="white"/>
</g>
<path d="M132.449 58.0634L125.7 57.5557C125.493 57.53 125.282 57.5526 125.085 57.6215C124.887 57.6904 124.708 57.8039 124.561 57.9532C124.414 58.1025 124.304 58.2837 124.238 58.4827C124.172 58.6816 124.152 58.8931 124.181 59.1008L124.731 64.7295C124.789 65.1939 125.002 65.6249 125.336 65.9518C125.671 66.2787 126.105 66.482 126.57 66.5285L128.53 66.683L129.487 68.0626C129.546 68.168 129.63 68.2571 129.731 68.3219C129.833 68.3868 129.949 68.4253 130.069 68.4341C130.189 68.4428 130.31 68.4215 130.419 68.3721C130.529 68.3227 130.625 68.2466 130.698 68.1509L131.381 66.8817L133.33 67.0362C133.537 67.0618 133.748 67.0393 133.945 66.9704C134.143 66.9014 134.322 66.7879 134.469 66.6386C134.615 66.4893 134.726 66.3082 134.792 66.1092C134.858 65.9102 134.877 65.6987 134.849 65.4911L134.298 59.8734C134.235 59.4083 134.019 58.9777 133.684 58.6498C133.349 58.322 132.914 58.1156 132.449 58.0634Z" fill="#407BFF"/>
<path opacity="0.9" d="M127.296 64.3763C127.16 64.3624 127.032 64.3024 126.934 64.2061C126.836 64.1099 126.773 63.9832 126.757 63.8467L126.592 61.9488C126.585 61.8876 126.591 61.8257 126.612 61.7676C126.632 61.7095 126.665 61.6567 126.708 61.6132C126.752 61.5697 126.804 61.5366 126.862 61.5164C126.92 61.4961 126.982 61.4893 127.043 61.4963C127.181 61.5123 127.311 61.5741 127.411 61.672C127.51 61.7699 127.574 61.8984 127.593 62.037L127.758 63.9239C127.766 63.9861 127.759 64.0491 127.738 64.1082C127.717 64.1672 127.683 64.2206 127.638 64.2644C127.594 64.3081 127.54 64.341 127.48 64.3604C127.421 64.3798 127.358 64.3852 127.296 64.3763Z" fill="white"/>
<path opacity="0.9" d="M128.232 61.4959C128.558 61.2688 128.831 60.9736 129.033 60.6307C129.234 60.2878 129.359 59.9053 129.399 59.5093C129.399 59.0348 130.071 58.9465 130.324 59.399C130.54 60.0511 130.501 60.7615 130.214 61.3856L131.491 61.4959C131.665 61.5202 131.831 61.586 131.975 61.6878C132.118 61.7895 132.236 61.9243 132.317 62.0809C132.415 62.2549 132.446 62.4591 132.405 62.6548L132.03 64.4648C132.009 64.5606 131.968 64.6509 131.91 64.7299C131.852 64.8089 131.778 64.8749 131.693 64.9237C131.608 64.9725 131.514 65.0031 131.417 65.0134C131.319 65.0237 131.221 65.0135 131.128 64.9835L128.684 64.3986C128.585 64.3728 128.497 64.3179 128.43 64.2411C128.364 64.1644 128.321 64.0693 128.309 63.9682L128.122 61.7608C128.123 61.6616 128.163 61.5668 128.232 61.4959Z" fill="white"/>
<path opacity="0.8" d="M158.386 13.2544L165.002 89.0101H271.79L265.174 13.2544H158.386Z" fill="white"/>
<g opacity="0.2">
<path opacity="0.2" d="M161.667 88.6578C161.442 88.6514 161.228 88.5642 161.062 88.4123C160.896 88.2603 160.79 88.0536 160.764 87.83L158.683 63.9798C158.672 63.874 158.684 63.7671 158.718 63.6661C158.751 63.5652 158.805 63.4725 158.877 63.3942C158.949 63.316 159.037 63.2539 159.134 63.2121C159.232 63.1704 159.337 63.1499 159.443 63.152C159.668 63.1539 159.884 63.2398 160.049 63.3929C160.214 63.546 160.316 63.7553 160.335 63.9798L162.415 87.83C162.426 87.9349 162.415 88.0408 162.382 88.141C162.35 88.2412 162.296 88.3333 162.225 88.4114C162.155 88.4895 162.069 88.5518 161.972 88.5942C161.876 88.6367 161.772 88.6583 161.667 88.6578Z" fill="black"/>
</g>
<g opacity="0.2">
<path opacity="0.2" d="M159.201 60.3927C158.976 60.3886 158.76 60.3023 158.593 60.1499C158.427 59.9975 158.322 59.7895 158.298 59.5649L155.381 25.7155C155.37 25.6106 155.381 25.5046 155.414 25.4045C155.447 25.3043 155.5 25.2122 155.571 25.1341C155.641 25.056 155.728 24.9937 155.824 24.9512C155.92 24.9088 156.024 24.8871 156.129 24.8877C156.355 24.8918 156.571 24.9781 156.737 25.1305C156.903 25.283 157.008 25.4909 157.032 25.7155L159.982 59.5649C159.994 59.6726 159.982 59.7815 159.947 59.8841C159.912 59.9866 159.856 60.0804 159.782 60.1591C159.707 60.2377 159.617 60.2993 159.517 60.3396C159.416 60.38 159.309 60.3981 159.201 60.3927Z" fill="black"/>
</g>
<g opacity="0.2">
<path opacity="0.2" d="M155.876 22.317C155.651 22.3106 155.437 22.2235 155.271 22.0715C155.105 21.9195 154.999 21.7129 154.973 21.4893L154.368 14.4368C154.355 14.3316 154.365 14.2249 154.397 14.124C154.429 14.023 154.482 13.9302 154.553 13.8517C154.624 13.7732 154.711 13.7109 154.809 13.669C154.906 13.6272 155.011 13.6067 155.116 13.6091C155.341 13.6131 155.557 13.6995 155.724 13.8519C155.89 14.0043 155.995 14.2123 156.019 14.4368L156.624 21.4893C156.635 21.5941 156.624 21.7001 156.591 21.8002C156.558 21.9004 156.505 21.9925 156.434 22.0706C156.364 22.1487 156.278 22.211 156.181 22.2535C156.085 22.2959 155.981 22.3176 155.876 22.317Z" fill="black"/>
</g>
<g opacity="0.2">
<path opacity="0.2" d="M275.06 88.6575C274.834 88.6534 274.619 88.5671 274.452 88.4147C274.286 88.2623 274.181 88.0543 274.157 87.8297L271.129 53.1194C271.119 53.0136 271.13 52.9067 271.164 52.8058C271.197 52.7048 271.251 52.6121 271.323 52.5339C271.395 52.4556 271.483 52.3935 271.58 52.3518C271.678 52.31 271.783 52.2895 271.889 52.2917C272.112 52.2984 272.326 52.3859 272.49 52.5381C272.654 52.6902 272.757 52.8967 272.781 53.1194L275.808 87.8297C275.819 87.9346 275.808 88.0406 275.775 88.1407C275.742 88.2409 275.689 88.333 275.618 88.4111C275.548 88.4892 275.461 88.5515 275.365 88.594C275.269 88.6364 275.165 88.6581 275.06 88.6575Z" fill="black"/>
</g>
<g opacity="0.2">
<path opacity="0.2" d="M271.68 49.9079C271.455 49.9039 271.239 49.8175 271.073 49.6651C270.906 49.5127 270.801 49.3047 270.777 49.0802L268.421 22.0403C268.409 21.9351 268.419 21.8285 268.451 21.7275C268.483 21.6265 268.536 21.5337 268.607 21.4552C268.678 21.3767 268.765 21.3144 268.862 21.2726C268.959 21.2307 269.064 21.2102 269.17 21.2126C269.396 21.2143 269.613 21.2998 269.78 21.4527C269.947 21.6055 270.051 21.8149 270.073 22.0403L272.429 49.0802C272.439 49.185 272.428 49.291 272.395 49.3912C272.363 49.4913 272.309 49.5835 272.239 49.6616C272.168 49.7397 272.082 49.802 271.985 49.8444C271.889 49.8869 271.785 49.9085 271.68 49.9079Z" fill="black"/>
</g>
<g opacity="0.2">
<path opacity="0.2" d="M268.884 17.9566C268.659 17.9547 268.443 17.8688 268.278 17.7158C268.113 17.5627 268.011 17.3535 267.992 17.129L267.75 14.4366C267.739 14.3309 267.751 14.224 267.784 14.123C267.817 14.0221 267.872 13.9295 267.943 13.8512C268.015 13.773 268.103 13.7109 268.2 13.6691C268.298 13.6274 268.403 13.6069 268.509 13.609C268.734 13.611 268.95 13.6969 269.115 13.8499C269.28 14.003 269.382 14.2122 269.401 14.4366L269.643 17.129C269.654 17.2348 269.642 17.3417 269.609 17.4426C269.576 17.5435 269.521 17.6362 269.449 17.7145C269.378 17.7927 269.29 17.8548 269.192 17.8965C269.095 17.9383 268.99 17.9588 268.884 17.9566Z" fill="black"/>
</g>
<path d="M252.722 46.6077C252.712 46.4656 252.731 46.3228 252.778 46.1885C252.825 46.0541 252.9 45.9311 252.997 45.8273C253.095 45.7235 253.213 45.6411 253.343 45.5855C253.474 45.5298 253.615 45.5021 253.757 45.504C254.061 45.507 254.354 45.6206 254.581 45.8236C254.807 46.0266 254.953 46.3052 254.99 46.6077L256.3 61.5734C256.311 61.7155 256.292 61.8582 256.245 61.9926C256.197 62.1269 256.123 62.2499 256.025 62.3537C255.928 62.4576 255.81 62.5399 255.679 62.5956C255.549 62.6513 255.408 62.679 255.265 62.6771C254.961 62.674 254.669 62.5605 254.442 62.3575C254.215 62.1545 254.07 61.8759 254.032 61.5734L252.722 46.6077Z" fill="#407BFF"/>
<path d="M166.389 19.623C166.085 19.6199 165.793 19.5064 165.566 19.3034C165.339 19.1004 165.194 18.8218 165.156 18.5193C165.146 18.3772 165.165 18.2345 165.212 18.1001C165.259 17.9658 165.334 17.8428 165.431 17.7389C165.529 17.6351 165.647 17.5528 165.777 17.4971C165.908 17.4414 166.049 17.4137 166.191 17.4156H192.129C192.433 17.4187 192.725 17.5322 192.952 17.7352C193.179 17.9382 193.324 18.2168 193.362 18.5193C193.372 18.6614 193.353 18.8041 193.306 18.9385C193.259 19.0728 193.184 19.1958 193.087 19.2997C192.989 19.4035 192.872 19.4858 192.741 19.5415C192.61 19.5971 192.469 19.6249 192.327 19.623H166.389Z" fill="#263238"/>
<path d="M167.138 27.8339C166.834 27.8309 166.542 27.7173 166.315 27.5143C166.088 27.3113 165.943 27.0327 165.905 26.7302C165.895 26.5881 165.913 26.4454 165.961 26.311C166.008 26.1767 166.083 26.0537 166.18 25.9499C166.278 25.8461 166.395 25.7637 166.526 25.708C166.657 25.6524 166.798 25.6246 166.94 25.6266H188.474C188.778 25.6296 189.07 25.7432 189.297 25.9462C189.524 26.1491 189.669 26.4278 189.707 26.7302C189.718 26.8723 189.699 27.0151 189.651 27.1494C189.604 27.2838 189.529 27.4068 189.432 27.5106C189.335 27.6144 189.217 27.6968 189.086 27.7524C188.955 27.8081 188.814 27.8358 188.672 27.8339H167.138Z" fill="#263238"/>
<path d="M166.775 23.7509C166.471 23.7478 166.178 23.6343 165.951 23.4313C165.725 23.2283 165.579 22.9497 165.542 22.6472C165.531 22.5051 165.55 22.3624 165.597 22.228C165.645 22.0937 165.719 21.9707 165.817 21.8669C165.914 21.7631 166.032 21.6807 166.163 21.625C166.294 21.5694 166.434 21.5416 166.577 21.5436H183.718C184.022 21.5466 184.314 21.6602 184.541 21.8632C184.768 22.0661 184.913 22.3447 184.951 22.6472C184.961 22.7893 184.942 22.9321 184.895 23.0664C184.848 23.2007 184.773 23.3237 184.676 23.4276C184.578 23.5314 184.461 23.6137 184.33 23.6694C184.199 23.7251 184.058 23.7528 183.916 23.7509H166.775Z" fill="#263238"/>
<g opacity="0.5">
<path opacity="0.5" d="M166.389 19.623C166.085 19.6199 165.793 19.5064 165.566 19.3034C165.339 19.1004 165.194 18.8218 165.156 18.5193C165.146 18.3772 165.165 18.2345 165.212 18.1001C165.259 17.9658 165.334 17.8428 165.431 17.7389C165.529 17.6351 165.647 17.5528 165.777 17.4971C165.908 17.4414 166.049 17.4137 166.191 17.4156H192.129C192.433 17.4187 192.725 17.5322 192.952 17.7352C193.179 17.9382 193.324 18.2168 193.362 18.5193C193.372 18.6614 193.353 18.8041 193.306 18.9385C193.259 19.0728 193.184 19.1958 193.087 19.2997C192.989 19.4035 192.872 19.4858 192.741 19.5415C192.61 19.5971 192.469 19.6249 192.327 19.623H166.389Z" fill="white"/>
<path opacity="0.5" d="M167.138 27.8339C166.834 27.8309 166.541 27.7173 166.315 27.5143C166.088 27.3113 165.942 27.0327 165.905 26.7302C165.894 26.5881 165.913 26.4454 165.961 26.311C166.008 26.1767 166.083 26.0537 166.18 25.9499C166.277 25.8461 166.395 25.7637 166.526 25.708C166.657 25.6524 166.798 25.6246 166.94 25.6266H188.474C188.778 25.6296 189.07 25.7432 189.297 25.9462C189.524 26.1491 189.669 26.4278 189.707 26.7302C189.717 26.8723 189.698 27.0151 189.651 27.1494C189.604 27.2838 189.529 27.4068 189.432 27.5106C189.334 27.6144 189.216 27.6968 189.086 27.7524C188.955 27.8081 188.814 27.8358 188.672 27.8339H167.138Z" fill="white"/>
<path opacity="0.5" d="M166.775 23.7499C166.471 23.7469 166.178 23.6333 165.951 23.4303C165.725 23.2273 165.579 22.9487 165.542 22.6462C165.531 22.5042 165.55 22.3614 165.597 22.2271C165.645 22.0927 165.719 21.9697 165.817 21.8659C165.914 21.7621 166.032 21.6797 166.163 21.6241C166.294 21.5684 166.434 21.5406 166.577 21.5426H183.718C184.022 21.5456 184.314 21.6592 184.541 21.8622C184.768 22.0652 184.913 22.3438 184.951 22.6462C184.961 22.7883 184.942 22.9311 184.895 23.0654C184.848 23.1998 184.773 23.3228 184.676 23.4266C184.578 23.5304 184.461 23.6128 184.33 23.6684C184.199 23.7241 184.058 23.7518 183.916 23.7499H166.775Z" fill="white"/>
</g>
<path d="M258.921 37.2817C259.002 38.0311 258.923 38.7893 258.69 39.5059C258.456 40.2224 258.073 40.8808 257.566 41.4374C257.058 41.9939 256.439 42.4357 255.748 42.7335C255.057 43.0312 254.311 43.1781 253.559 43.1643C251.961 43.1373 250.428 42.5236 249.252 41.4394C248.075 40.3552 247.335 38.8758 247.174 37.2817C247.091 36.5314 247.168 35.772 247.401 35.0541C247.634 34.3363 248.017 33.6764 248.524 33.1187C249.032 32.5609 249.652 32.118 250.344 31.8196C251.035 31.5212 251.782 31.3741 252.535 31.3881C254.13 31.4318 255.655 32.0527 256.829 33.136C258.003 34.2193 258.746 35.6919 258.921 37.2817Z" fill="#407BFF"/>
<path d="M250.157 40.0845C249.979 40.0851 249.808 40.0183 249.677 39.8975C249.547 39.7768 249.467 39.6111 249.453 39.4335L249.233 36.9618C249.223 36.8787 249.231 36.7945 249.257 36.7149C249.283 36.6353 249.325 36.5622 249.382 36.5005C249.438 36.4388 249.507 36.3899 249.584 36.3572C249.661 36.3244 249.743 36.3086 249.827 36.3107C250.003 36.3151 250.172 36.3835 250.301 36.5033C250.431 36.6231 250.513 36.786 250.531 36.9618L250.74 39.4335C250.75 39.5157 250.742 39.5989 250.717 39.6777C250.691 39.7565 250.65 39.829 250.595 39.8905C250.54 39.9521 250.472 40.0012 250.397 40.0346C250.321 40.068 250.24 40.0851 250.157 40.0845Z" fill="white"/>
<path d="M251.368 36.178C252.214 35.4931 252.756 34.5017 252.877 33.4188C252.889 33.2814 252.945 33.1516 253.037 33.0489C253.129 32.9461 253.251 32.8759 253.386 32.8486C253.521 32.8213 253.661 32.8384 253.786 32.8974C253.91 32.9564 254.012 33.0541 254.077 33.176C254.36 34.0384 254.309 34.9764 253.933 35.8027H255.563C255.791 35.8009 256.015 35.8629 256.209 35.9819C256.404 36.1009 256.561 36.272 256.664 36.476C256.785 36.7062 256.827 36.9698 256.785 37.2265L256.3 39.6545C256.247 39.9154 256.094 40.1448 255.874 40.2934C255.653 40.442 255.384 40.498 255.122 40.4492L251.963 39.9525C251.834 39.9313 251.715 39.8678 251.625 39.772C251.536 39.6762 251.48 39.5534 251.467 39.4227L251.214 36.5863C251.209 36.5111 251.22 36.4356 251.246 36.3651C251.273 36.2946 251.315 36.2307 251.368 36.178Z" fill="white"/>
<path d="M261.849 70.8994C261.69 69.3033 260.952 67.8213 259.775 66.7348C258.598 65.6483 257.064 65.033 255.464 65.0058C254.711 64.9918 253.964 65.1389 253.272 65.4373C252.58 65.7357 251.96 66.1786 251.453 66.7363C250.945 67.2941 250.562 67.9539 250.33 68.6718C250.097 69.3897 250.019 70.1491 250.102 70.8994C250.277 72.4892 251.02 73.9618 252.194 75.0451C253.368 76.1284 254.893 76.7493 256.488 76.793C257.241 76.807 257.988 76.6599 258.679 76.3615C259.371 76.0631 259.991 75.6202 260.499 75.0624C261.006 74.5047 261.389 73.8448 261.622 73.1269C261.855 72.4091 261.932 71.6497 261.849 70.8994Z" fill="#407BFF"/>
<path d="M252.601 68.0856C252.518 68.0835 252.435 68.0994 252.358 68.1321C252.281 68.1648 252.212 68.2137 252.156 68.2754C252.1 68.3371 252.057 68.4102 252.031 68.4898C252.006 68.5694 251.997 68.6536 252.007 68.7367L252.26 71.2084C252.276 71.385 252.357 71.5493 252.487 71.6696C252.617 71.7898 252.787 71.8575 252.964 71.8594C253.047 71.86 253.128 71.8429 253.204 71.8095C253.279 71.7761 253.347 71.727 253.402 71.6654C253.457 71.6039 253.499 71.5314 253.524 71.4526C253.549 71.3738 253.557 71.2906 253.548 71.2084L253.339 68.7256C253.314 68.5472 253.226 68.3838 253.09 68.2659C252.955 68.1481 252.781 68.084 252.601 68.0856Z" fill="white"/>
<path d="M254.462 71.9917C255.417 72.6656 256.118 73.641 256.455 74.7619C256.554 75.391 257.467 75.5786 257.688 75.0047C257.908 74.4308 257.776 73.7906 257.093 72.3669H258.745C258.955 72.3726 259.162 72.3116 259.336 72.1928C259.51 72.0739 259.642 71.9031 259.713 71.7047C259.796 71.4613 259.796 71.1976 259.713 70.9542L258.8 68.5262C258.704 68.2639 258.522 68.0421 258.284 67.8976C258.046 67.7531 257.765 67.6945 257.489 67.7315L254.418 68.2282C254.295 68.2473 254.185 68.3129 254.109 68.4115C254.033 68.5101 253.998 68.6341 254.011 68.7579L254.264 71.5833C254.265 71.6617 254.284 71.7388 254.318 71.8094C254.352 71.8799 254.401 71.9421 254.462 71.9917Z" fill="white"/>
<path d="M238.07 76.152C249.17 64.5278 247.907 45.2569 235.249 33.1091C222.591 20.9614 203.331 20.537 192.231 32.1611C181.131 43.7853 182.395 63.0562 195.052 75.2039C207.71 87.3517 226.97 87.7761 238.07 76.152Z" fill="#407BFF"/>
<path opacity="0.6" d="M234.745 32.5803C228.69 26.9525 220.752 23.8025 212.496 23.751C195.729 23.751 183.322 37.3813 184.786 54.1901H215.149L234.745 32.5803Z" fill="white"/>
<path opacity="0.2" d="M191.798 32.5808L215.149 54.1024L212.495 23.7515C208.621 23.6902 204.778 24.4444 201.213 25.9652C197.648 27.4861 194.44 29.7398 191.798 32.5808Z" fill="black"/>
<path d="M191.798 32.5808L215.149 54.1024L212.495 23.7515C208.621 23.6902 204.778 24.4444 201.213 25.9652C197.648 27.4861 194.44 29.7398 191.798 32.5808Z" fill="#407BFF"/>
<path opacity="0.3" d="M191.798 32.5808L215.149 54.1024L212.495 23.7515C208.621 23.6902 204.778 24.4444 201.213 25.9652C197.648 27.4861 194.44 29.7398 191.798 32.5808Z" fill="black"/>
<path opacity="0.3" d="M217.813 84.5854C234.58 84.5854 246.987 70.9551 245.523 54.1353H215.149L195.553 75.6237C201.59 81.3023 209.535 84.5007 217.813 84.5854Z" fill="white"/>
<path d="M237.684 79.3755C237.786 80.3177 237.686 81.2709 237.392 82.1717C237.099 83.0725 236.617 83.9005 235.98 84.6007C235.343 85.301 234.565 85.8575 233.697 86.2334C232.829 86.6093 231.892 86.796 230.946 86.7811C228.937 86.743 227.011 85.9686 225.533 84.6042C224.054 83.2397 223.125 81.3798 222.921 79.3755C222.81 78.432 222.903 77.4756 223.193 76.5713C223.484 75.667 223.965 74.8359 224.604 74.1345C225.243 73.433 226.025 72.8777 226.897 72.5061C227.769 72.1345 228.711 71.9554 229.658 71.9809C231.666 72.0187 233.59 72.7916 235.069 74.1537C236.547 75.5159 237.477 77.3732 237.684 79.3755Z" fill="#263238"/>
<path d="M227.732 80.6119C227.135 80.1492 226.741 79.4728 226.631 78.7247C226.593 78.5054 226.606 78.2804 226.669 78.0669C226.731 77.8535 226.841 77.6572 226.991 77.4931C227.141 77.329 227.326 77.2015 227.533 77.1204C227.74 77.0392 227.962 77.0066 228.183 77.025C229.152 77.025 229.515 77.4775 230.132 78.1287C230.638 77.4886 230.925 77.025 231.893 77.025C232.363 77.007 232.82 77.1754 233.167 77.4937C233.513 77.8119 233.72 78.2543 233.743 78.7247C233.764 79.0731 233.71 79.4221 233.585 79.7478C233.46 80.0735 233.266 80.3682 233.016 80.6119L230.583 83.2718L227.732 80.6119Z" fill="#407BFF"/>
<path d="M196.037 42.2925C196.149 43.2368 196.058 44.1944 195.768 45.1001C195.479 46.0057 194.998 46.8382 194.358 47.5409C193.719 48.2436 192.936 48.8 192.063 49.1722C191.19 49.5445 190.248 49.7238 189.299 49.6981C187.29 49.6599 185.364 48.8855 183.886 47.5211C182.407 46.1567 181.478 44.2967 181.274 42.2925C181.163 41.349 181.256 40.3926 181.546 39.4883C181.836 38.584 182.318 37.7529 182.957 37.0514C183.596 36.35 184.378 35.7946 185.25 35.4231C186.122 35.0515 187.064 34.8724 188.011 34.8979C190.019 34.9333 191.945 35.7054 193.424 37.068C194.903 38.4306 195.832 40.2893 196.037 42.2925Z" fill="#263238"/>
<path d="M193.307 42.2929C193.368 42.8839 193.303 43.4811 193.116 44.0452C192.93 44.6092 192.627 45.1273 192.226 45.5653C191.826 46.0032 191.337 46.3512 190.793 46.5861C190.249 46.821 189.661 46.9377 189.068 46.9283C187.801 46.9052 186.586 46.4175 185.653 45.5573C184.72 44.6971 184.133 43.524 184.004 42.2598C183.94 41.6661 184.003 41.0655 184.188 40.498C184.373 39.9305 184.677 39.4091 185.079 38.9685C185.481 38.5278 185.972 38.1781 186.52 37.9425C187.067 37.707 187.658 37.591 188.254 37.6023C189.523 37.6263 190.74 38.1175 191.672 38.9824C192.603 39.8474 193.185 41.0256 193.307 42.2929Z" fill="#407BFF"/>
<path opacity="0.5" d="M193.307 42.2929C193.368 42.8839 193.303 43.4811 193.116 44.0452C192.93 44.6092 192.627 45.1273 192.226 45.5653C191.826 46.0032 191.337 46.3512 190.793 46.5861C190.249 46.821 189.661 46.9377 189.068 46.9283C187.801 46.9052 186.586 46.4175 185.653 45.5573C184.72 44.6971 184.133 43.524 184.004 42.2598C183.94 41.6661 184.003 41.0655 184.188 40.498C184.373 39.9305 184.677 39.4091 185.079 38.9685C185.481 38.5278 185.972 38.1781 186.52 37.9425C187.067 37.707 187.658 37.591 188.254 37.6023C189.523 37.6263 190.74 38.1175 191.672 38.9824C192.603 39.8474 193.185 41.0256 193.307 42.2929Z" fill="white"/>
<path d="M190.355 43.2853C189.922 43.704 189.344 43.938 188.743 43.938C188.141 43.938 187.563 43.704 187.13 43.2853C187.095 43.2428 187.052 43.2083 187.002 43.1841C186.953 43.1599 186.899 43.1467 186.844 43.1452C186.789 43.1437 186.734 43.154 186.683 43.1754C186.633 43.1969 186.587 43.229 186.55 43.2695C186.513 43.3101 186.484 43.3581 186.467 43.4105C186.45 43.4629 186.444 43.5183 186.45 43.5731C186.456 43.628 186.474 43.6809 186.502 43.7283C186.53 43.7757 186.568 43.8166 186.613 43.8481C187.198 44.4303 187.99 44.7569 188.814 44.7569C189.639 44.7569 190.43 44.4303 191.016 43.8481C191.368 43.495 190.752 42.9322 190.399 43.2853H190.355Z" fill="#407BFF"/>
<path d="M187.417 40.7801C187.417 41.2877 187.318 41.696 187.097 41.696C186.877 41.696 186.668 41.2877 186.624 40.7801C186.58 40.2725 186.723 39.8643 186.943 39.8643C187.163 39.8643 187.373 40.3056 187.417 40.7801Z" fill="#407BFF"/>
<path d="M190.422 40.7801C190.422 41.2877 190.323 41.696 190.114 41.696C189.905 41.696 189.684 41.2877 189.629 40.7801C189.574 40.2725 189.728 39.8643 189.949 39.8643C190.169 39.8643 190.378 40.3056 190.422 40.7801Z" fill="#407BFF"/>
<path d="M241.108 35.5705C241.219 36.514 241.126 37.4704 240.835 38.3747C240.545 39.279 240.064 40.1101 239.425 40.8115C238.786 41.5129 238.004 42.0683 237.131 42.4399C236.259 42.8115 235.318 42.9906 234.37 42.9651C232.363 42.9273 230.438 42.1544 228.96 40.7923C227.482 39.4301 226.551 37.5728 226.345 35.5705C226.243 34.6282 226.343 33.6751 226.636 32.7743C226.93 31.8734 227.411 31.0455 228.048 30.3452C228.686 29.645 229.464 29.0885 230.332 28.7126C231.199 28.3367 232.137 28.15 233.082 28.1649C235.092 28.203 237.017 28.9774 238.496 30.3418C239.975 31.7062 240.904 33.5662 241.108 35.5705Z" fill="#263238"/>
<path d="M238.378 35.5714C238.442 36.1642 238.379 36.7638 238.195 37.3305C238.01 37.8972 237.707 38.4181 237.306 38.8586C236.906 39.299 236.416 39.649 235.87 39.8852C235.324 40.1215 234.734 40.2386 234.139 40.2289C232.874 40.2061 231.66 39.7199 230.727 38.862C229.794 38.0041 229.207 36.8337 229.075 35.5714C229.011 34.9772 229.074 34.3762 229.259 33.8081C229.444 33.2401 229.748 32.718 230.15 32.2765C230.552 31.835 231.043 31.4843 231.59 31.2474C232.137 31.0106 232.729 30.8932 233.325 30.9029C234.59 30.9287 235.803 31.4176 236.733 32.2775C237.664 33.1375 238.249 34.3091 238.378 35.5714Z" fill="#407BFF"/>
<path opacity="0.5" d="M238.378 35.5714C238.442 36.1642 238.379 36.7638 238.195 37.3305C238.01 37.8972 237.707 38.4181 237.306 38.8586C236.906 39.299 236.416 39.649 235.87 39.8852C235.324 40.1215 234.734 40.2386 234.139 40.2289C232.874 40.2061 231.66 39.7199 230.727 38.862C229.794 38.0041 229.207 36.8337 229.075 35.5714C229.011 34.9772 229.074 34.3762 229.259 33.8081C229.444 33.2401 229.748 32.718 230.15 32.2765C230.552 31.835 231.043 31.4843 231.59 31.2474C232.137 31.0106 232.729 30.8932 233.325 30.9029C234.59 30.9287 235.803 31.4176 236.733 32.2775C237.664 33.1375 238.249 34.3091 238.378 35.5714Z" fill="white"/>
<path d="M232.312 37.9001C232.744 37.4755 233.325 37.2376 233.93 37.2376C234.535 37.2376 235.116 37.4755 235.548 37.9001C235.585 37.9341 235.629 37.9604 235.677 37.9774C235.725 37.9945 235.775 38.0019 235.826 37.9994C235.876 37.9968 235.926 37.9843 235.972 37.9625C236.017 37.9407 236.059 37.9101 236.092 37.8725C236.126 37.8348 236.153 37.7908 236.17 37.7429C236.187 37.6951 236.194 37.6444 236.192 37.5936C236.189 37.5429 236.177 37.4932 236.155 37.4473C236.133 37.4015 236.103 37.3603 236.065 37.3263C235.475 36.7519 234.686 36.4307 233.864 36.4307C233.042 36.4307 232.252 36.7519 231.662 37.3263C231.321 37.6794 231.937 38.2421 232.279 37.9001H232.312Z" fill="#407BFF"/>
<path d="M232.444 34.0477C232.444 34.5553 232.344 34.9636 232.124 34.9636C231.904 34.9636 231.695 34.5553 231.651 34.0477C231.607 33.5401 231.75 33.1318 231.97 33.1318C232.19 33.1318 232.444 33.5401 232.444 34.0477Z" fill="#407BFF"/>
<path d="M235.493 34.0477C235.493 34.5553 235.394 34.9636 235.185 34.9636C234.976 34.9636 234.756 34.5553 234.712 34.0477C234.668 33.5401 234.8 33.1318 235.02 33.1318C235.24 33.1318 235.449 33.5401 235.493 34.0477Z" fill="#407BFF"/>
<path d="M194.833 70.3853C197.532 67.5585 197.228 62.8751 194.153 59.9246C191.079 56.974 186.398 56.8737 183.699 59.7005C181 62.5273 181.304 67.2107 184.378 70.1613C187.453 73.1118 192.133 73.2121 194.833 70.3853Z" fill="#263238"/>
<path d="M192.773 68.3645C194.471 66.5857 194.278 63.6368 192.341 61.7779C190.404 59.9191 187.457 59.8543 185.758 61.6331C184.06 63.412 184.253 66.3609 186.19 68.2197C188.127 70.0786 191.074 70.1434 192.773 68.3645Z" fill="#407BFF"/>
<path opacity="0.5" d="M192.773 68.3645C194.471 66.5857 194.278 63.6368 192.341 61.7779C190.404 59.9191 187.457 59.8543 185.758 61.6331C184.06 63.412 184.253 66.3609 186.19 68.2197C188.127 70.0786 191.074 70.1434 192.773 68.3645Z" fill="white"/>
<path d="M187.098 66.4848C187.715 67.088 188.542 67.4257 189.404 67.4257C190.265 67.4257 191.093 67.088 191.71 66.4848L191.644 65.7124H187.021L187.098 66.4848Z" fill="#407BFF"/>
<path d="M188.66 63.6153C188.388 63.3536 188.025 63.2075 187.648 63.2075C187.27 63.2075 186.908 63.3536 186.635 63.6153C186.36 63.858 186.822 64.2884 187.097 64.0346C187.252 63.8796 187.462 63.7925 187.681 63.7925C187.9 63.7925 188.109 63.8796 188.264 64.0346C188.583 64.2884 188.969 63.858 188.66 63.6153Z" fill="#407BFF"/>
<path d="M191.71 63.6153C191.438 63.3536 191.075 63.2075 190.697 63.2075C190.32 63.2075 189.957 63.3536 189.685 63.6153C189.41 63.858 189.872 64.2884 190.147 64.0346C190.305 63.8815 190.516 63.796 190.736 63.796C190.956 63.796 191.167 63.8815 191.325 64.0346C191.633 64.2884 192.029 63.858 191.71 63.6153Z" fill="#407BFF"/>
<path d="M273.045 117.871H238.906V123.434H307.184V121.149L273.045 117.871Z" fill="#407BFF"/>
<path opacity="0.6" d="M273.045 117.871H238.906V123.434H307.184V121.149L273.045 117.871Z" fill="white"/>
<path opacity="0.6" d="M273.045 123.434H238.906V117.871L273.045 121.149V123.434Z" fill="white"/>
<g opacity="0.5">
<path opacity="0.5" d="M382.431 57.423L377.73 3.59717L371.367 4.16003L344.141 82.9067L374.537 80.2138L382.431 57.423Z" fill="white"/>
</g>
<g opacity="0.5">
<path opacity="0.5" d="M237.849 89.0101L264.051 13.2544H234.579L208.378 89.0101H237.849Z" fill="white"/>
</g>
<path opacity="0.5" d="M131.238 86.3617L152.738 24.1921L151.758 12.9678L127.869 10.8818L102.625 83.8674L131.238 86.3617Z" fill="white"/>
<path d="M109.407 127.728H328.773V132.418C328.773 132.667 328.724 132.914 328.629 133.145C328.534 133.375 328.395 133.584 328.219 133.76C328.043 133.937 327.834 134.077 327.604 134.172C327.375 134.267 327.128 134.316 326.88 134.316H111.345C110.843 134.316 110.361 134.116 110.006 133.76C109.651 133.404 109.451 132.922 109.451 132.418V127.728H109.407Z" fill="#407BFF"/>
<path opacity="0.2" d="M109.407 127.728H328.773V132.418C328.773 132.667 328.724 132.914 328.629 133.145C328.534 133.375 328.395 133.584 328.219 133.76C328.043 133.937 327.834 134.077 327.604 134.172C327.375 134.267 327.128 134.316 326.88 134.316H111.345C110.843 134.316 110.361 134.116 110.006 133.76C109.651 133.404 109.451 132.922 109.451 132.418V127.728H109.407Z" fill="black"/>
<path opacity="0.3" d="M109.407 127.728H208.709V134.35H111.345C111.096 134.35 110.85 134.3 110.62 134.205C110.39 134.11 110.182 133.97 110.006 133.794C109.83 133.617 109.691 133.408 109.595 133.178C109.5 132.947 109.451 132.701 109.451 132.451V127.761L109.407 127.728Z" fill="white"/>
<path d="M333.243 123.445H104.937C103.703 123.445 102.702 124.448 102.702 125.686V126.723C102.702 127.961 103.703 128.964 104.937 128.964H333.243C334.477 128.964 335.478 127.961 335.478 126.723V125.686C335.478 124.448 334.477 123.445 333.243 123.445Z" fill="#407BFF"/>
<path opacity="0.4" d="M104.937 123.445H208.708V128.964H104.937C104.353 128.964 103.793 128.731 103.38 128.317C102.967 127.903 102.735 127.342 102.735 126.756V125.719C102.727 125.424 102.777 125.129 102.884 124.854C102.99 124.578 103.151 124.327 103.356 124.115C103.562 123.903 103.808 123.734 104.079 123.619C104.351 123.504 104.642 123.445 104.937 123.445Z" fill="white"/>
<path d="M197.127 267.01H120.989C118.793 267.01 116.687 266.136 115.135 264.579C113.582 263.023 112.71 260.912 112.71 258.711V142.638C112.71 140.437 113.582 138.326 115.135 136.769C116.687 135.213 118.793 134.338 120.989 134.338H197.127C199.323 134.338 201.428 135.213 202.981 136.769C204.534 138.326 205.406 140.437 205.406 142.638V258.711C205.406 260.912 204.534 263.023 202.981 264.579C201.428 266.136 199.323 267.01 197.127 267.01ZM120.989 138.753C119.962 138.756 118.978 139.166 118.252 139.894C117.525 140.622 117.116 141.609 117.113 142.638V258.711C117.116 259.74 117.525 260.727 118.252 261.454C118.978 262.182 119.962 262.593 120.989 262.596H197.127C198.154 262.593 199.138 262.182 199.864 261.454C200.59 260.727 200.999 259.74 201.002 258.711V142.638C200.999 141.609 200.59 140.622 199.864 139.894C199.138 139.166 198.154 138.756 197.127 138.753H120.989Z" fill="#263238"/>
<g opacity="0.4">
<path opacity="0.2" d="M197.127 267.01H120.989C118.793 267.01 116.687 266.136 115.135 264.579C113.582 263.023 112.71 260.912 112.71 258.711V142.638C112.71 140.437 113.582 138.326 115.135 136.769C116.687 135.213 118.793 134.338 120.989 134.338H197.127C199.323 134.338 201.428 135.213 202.981 136.769C204.534 138.326 205.406 140.437 205.406 142.638V258.711C205.406 260.912 204.534 263.023 202.981 264.579C201.428 266.136 199.323 267.01 197.127 267.01ZM120.989 138.753C119.962 138.756 118.978 139.166 118.252 139.894C117.525 140.622 117.116 141.609 117.113 142.638V258.711C117.116 259.74 117.525 260.727 118.252 261.454C118.978 262.182 119.962 262.593 120.989 262.596H197.127C198.154 262.593 199.138 262.182 199.864 261.454C200.59 260.727 200.999 259.74 201.002 258.711V142.638C200.999 141.609 200.59 140.622 199.864 139.894C199.138 139.166 198.154 138.756 197.127 138.753H120.989Z" fill="white"/>
</g>
<path opacity="0.2" d="M197.127 134.338H120.988C118.938 134.341 116.962 135.105 115.441 136.483C113.921 137.861 112.963 139.755 112.753 141.799H117.212C117.402 140.937 117.88 140.165 118.566 139.611C119.253 139.058 120.107 138.755 120.988 138.753H197.127C198.008 138.755 198.862 139.058 199.548 139.611C200.235 140.165 200.713 140.937 200.903 141.799H205.361C205.152 139.755 204.194 137.861 202.673 136.483C201.153 135.105 199.177 134.341 197.127 134.338Z" fill="black"/>
<path d="M315.65 267.01H239.512C237.316 267.01 235.211 266.136 233.658 264.579C232.105 263.023 231.233 260.912 231.233 258.711V142.638C231.233 140.437 232.105 138.326 233.658 136.769C235.211 135.213 237.316 134.338 239.512 134.338H315.65C317.845 134.341 319.949 135.217 321.501 136.772C323.053 138.328 323.926 140.438 323.929 142.638V258.711C323.926 260.911 323.053 263.02 321.501 264.576C319.949 266.132 317.845 267.007 315.65 267.01ZM239.512 138.753C238.485 138.756 237.501 139.166 236.775 139.894C236.049 140.622 235.64 141.609 235.637 142.638V258.711C235.64 259.74 236.049 260.727 236.775 261.454C237.501 262.182 238.485 262.593 239.512 262.596H315.65C316.677 262.593 317.661 262.182 318.387 261.454C319.114 260.727 319.523 259.74 319.526 258.711V142.638C319.523 141.609 319.114 140.622 318.387 139.894C317.661 139.166 316.677 138.756 315.65 138.753H239.512Z" fill="#263238"/>
<path opacity="0.1" d="M315.65 267.01H239.512C237.316 267.01 235.211 266.136 233.658 264.579C232.105 263.023 231.233 260.912 231.233 258.711V142.638C231.233 140.437 232.105 138.326 233.658 136.769C235.211 135.213 237.316 134.338 239.512 134.338H315.65C317.845 134.341 319.949 135.217 321.501 136.772C323.053 138.328 323.926 140.438 323.929 142.638V258.711C323.926 260.911 323.053 263.02 321.501 264.576C319.949 266.132 317.845 267.007 315.65 267.01ZM239.512 138.753C238.485 138.756 237.501 139.166 236.775 139.894C236.049 140.622 235.64 141.609 235.637 142.638V258.711C235.64 259.74 236.049 260.727 236.775 261.454C237.501 262.182 238.485 262.593 239.512 262.596H315.65C316.677 262.593 317.661 262.182 318.387 261.454C319.114 260.727 319.523 259.74 319.526 258.711V142.638C319.523 141.609 319.114 140.622 318.387 139.894C317.661 139.166 316.677 138.756 315.65 138.753H239.512Z" fill="white"/>
<path opacity="0.2" d="M315.65 134.338H239.512C237.462 134.341 235.486 135.105 233.965 136.483C232.444 137.861 231.487 139.755 231.277 141.799H235.681C235.873 140.936 236.353 140.164 237.041 139.61C237.73 139.057 238.585 138.754 239.468 138.753H315.606C316.499 138.749 317.366 139.055 318.06 139.618C318.754 140.181 319.233 140.967 319.415 141.843H323.874C323.675 139.793 322.723 137.89 321.204 136.503C319.684 135.117 317.705 134.345 315.65 134.338Z" fill="black"/>
<path d="M178.731 161.611H93.576C88.4565 161.611 84.3064 165.772 84.3064 170.904V258.149C84.3064 263.281 88.4565 267.442 93.576 267.442H178.731C183.85 267.442 188.001 263.281 188.001 258.149V170.904C188.001 165.772 183.85 161.611 178.731 161.611Z" fill="#407BFF"/>
<path opacity="0.4" d="M178.731 161.611H93.576C88.4565 161.611 84.3064 165.772 84.3064 170.904V258.149C84.3064 263.281 88.4565 267.442 93.576 267.442H178.731C183.85 267.442 188.001 263.281 188.001 258.149V170.904C188.001 165.772 183.85 161.611 178.731 161.611Z" fill="white"/>
<path opacity="0.1" d="M84.3064 258.07V258.137C84.305 259.358 84.5437 260.567 85.0088 261.696C85.474 262.825 86.1566 263.851 87.0175 264.715C87.8784 265.579 88.9008 266.264 90.0261 266.732C91.1515 267.2 92.3578 267.44 93.576 267.44H178.731C179.949 267.44 181.155 267.2 182.281 266.732C183.406 266.264 184.429 265.579 185.289 264.715C186.15 263.851 186.833 262.825 187.298 261.696C187.763 260.567 188.002 259.358 188.001 258.137V258.07H84.3064Z" fill="black"/>
<path d="M178.731 161.61H155.116C149.997 161.61 145.847 165.771 145.847 170.903V258.148C145.847 263.28 149.997 267.441 155.116 267.441H178.731C183.85 267.441 188 263.28 188 258.148V170.903C188 165.771 183.85 161.61 178.731 161.61Z" fill="#407BFF"/>
<path opacity="0.3" d="M178.731 166.577H155.116C152.733 166.577 150.801 168.514 150.801 170.903V258.148C150.801 260.537 152.733 262.474 155.116 262.474H178.731C181.114 262.474 183.046 260.537 183.046 258.148V170.903C183.046 168.514 181.114 166.577 178.731 166.577Z" fill="white"/>
<path opacity="0.7" d="M179.865 173.475H153.994V180.373H179.865V173.475Z" fill="white"/>
<path opacity="0.7" d="M179.865 181.752H153.994V188.65H179.865V181.752Z" fill="white"/>
<path d="M166.929 219.916C169.902 219.916 172.312 217.5 172.312 214.52C172.312 211.539 169.902 209.123 166.929 209.123C163.956 209.123 161.546 211.539 161.546 214.52C161.546 217.5 163.956 219.916 166.929 219.916Z" fill="#407BFF"/>
<g opacity="0.9">
<path opacity="0.9" d="M168.173 213.449C168.422 213.697 168.592 214.014 168.661 214.359C168.73 214.704 168.696 215.062 168.562 215.387C168.428 215.712 168.201 215.991 167.909 216.186C167.618 216.382 167.275 216.486 166.924 216.486C166.573 216.486 166.229 216.382 165.938 216.186C165.646 215.991 165.419 215.712 165.285 215.387C165.151 215.062 165.117 214.704 165.186 214.359C165.255 214.014 165.425 213.697 165.674 213.449C166.18 212.897 165.355 212.059 164.837 212.622C164.425 213.035 164.144 213.562 164.03 214.136C163.916 214.71 163.974 215.305 164.198 215.845C164.421 216.385 164.799 216.847 165.284 217.172C165.77 217.497 166.34 217.671 166.924 217.671C167.507 217.671 168.078 217.497 168.563 217.172C169.048 216.847 169.426 216.385 169.649 215.845C169.873 215.305 169.931 214.71 169.817 214.136C169.703 213.562 169.422 213.035 169.01 212.622C168.492 212.059 167.667 212.897 168.173 213.449Z" fill="white"/>
<path opacity="0.9" d="M166.389 211.374V214.067C166.409 214.209 166.479 214.34 166.587 214.435C166.696 214.53 166.834 214.582 166.978 214.582C167.122 214.582 167.26 214.53 167.369 214.435C167.477 214.34 167.547 214.209 167.567 214.067V211.374C167.547 211.232 167.477 211.101 167.369 211.006C167.26 210.912 167.122 210.859 166.978 210.859C166.834 210.859 166.696 210.912 166.587 211.006C166.479 211.101 166.409 211.232 166.389 211.374Z" fill="white"/>
</g>
<path d="M156.724 232.156C157.636 232.156 158.375 231.415 158.375 230.501C158.375 229.587 157.636 228.846 156.724 228.846C155.812 228.846 155.073 229.587 155.073 230.501C155.073 231.415 155.812 232.156 156.724 232.156Z" fill="#407BFF"/>
<path d="M163.527 232.156C164.439 232.156 165.178 231.415 165.178 230.501C165.178 229.587 164.439 228.846 163.527 228.846C162.615 228.846 161.876 229.587 161.876 230.501C161.876 231.415 162.615 232.156 163.527 232.156Z" fill="#407BFF"/>
<path d="M170.331 232.156C171.243 232.156 171.982 231.415 171.982 230.501C171.982 229.587 171.243 228.846 170.331 228.846C169.419 228.846 168.68 229.587 168.68 230.501C168.68 231.415 169.419 232.156 170.331 232.156Z" fill="#407BFF"/>
<path d="M177.134 232.156C178.046 232.156 178.785 231.415 178.785 230.501C178.785 229.587 178.046 228.846 177.134 228.846C176.222 228.846 175.483 229.587 175.483 230.501C175.483 231.415 176.222 232.156 177.134 232.156Z" fill="#407BFF"/>
<path d="M160.125 238.038C161.037 238.038 161.776 237.297 161.776 236.383C161.776 235.469 161.037 234.728 160.125 234.728C159.213 234.728 158.474 235.469 158.474 236.383C158.474 237.297 159.213 238.038 160.125 238.038Z" fill="#407BFF"/>
<path d="M166.929 238.038C167.841 238.038 168.58 237.297 168.58 236.383C168.58 235.469 167.841 234.728 166.929 234.728C166.017 234.728 165.278 235.469 165.278 236.383C165.278 237.297 166.017 238.038 166.929 238.038Z" fill="#407BFF"/>
<path d="M173.732 238.038C174.644 238.038 175.383 237.297 175.383 236.383C175.383 235.469 174.644 234.728 173.732 234.728C172.82 234.728 172.081 235.469 172.081 236.383C172.081 237.297 172.82 238.038 173.732 238.038Z" fill="#407BFF"/>
<path d="M156.724 244.561C157.636 244.561 158.375 243.82 158.375 242.906C158.375 241.992 157.636 241.251 156.724 241.251C155.812 241.251 155.073 241.992 155.073 242.906C155.073 243.82 155.812 244.561 156.724 244.561Z" fill="#407BFF"/>
<path d="M163.527 244.561C164.439 244.561 165.178 243.82 165.178 242.906C165.178 241.992 164.439 241.251 163.527 241.251C162.615 241.251 161.876 241.992 161.876 242.906C161.876 243.82 162.615 244.561 163.527 244.561Z" fill="#407BFF"/>
<path d="M170.331 244.561C171.243 244.561 171.982 243.82 171.982 242.906C171.982 241.992 171.243 241.251 170.331 241.251C169.419 241.251 168.68 241.992 168.68 242.906C168.68 243.82 169.419 244.561 170.331 244.561Z" fill="#407BFF"/>
<path d="M177.134 244.561C178.046 244.561 178.785 243.82 178.785 242.906C178.785 241.992 178.046 241.251 177.134 241.251C176.222 241.251 175.483 241.992 175.483 242.906C175.483 243.82 176.222 244.561 177.134 244.561Z" fill="#407BFF"/>
<path d="M160.125 250.444C161.037 250.444 161.776 249.703 161.776 248.788C161.776 247.874 161.037 247.133 160.125 247.133C159.213 247.133 158.474 247.874 158.474 248.788C158.474 249.703 159.213 250.444 160.125 250.444Z" fill="#407BFF"/>
<path d="M166.929 250.444C167.841 250.444 168.58 249.703 168.58 248.788C168.58 247.874 167.841 247.133 166.929 247.133C166.017 247.133 165.278 247.874 165.278 248.788C165.278 249.703 166.017 250.444 166.929 250.444Z" fill="#407BFF"/>
<path d="M173.732 250.444C174.644 250.444 175.383 249.703 175.383 248.788C175.383 247.874 174.644 247.133 173.732 247.133C172.82 247.133 172.081 247.874 172.081 248.788C172.081 249.703 172.82 250.444 173.732 250.444Z" fill="#407BFF"/>
<path d="M156.724 256.966C157.636 256.966 158.375 256.225 158.375 255.311C158.375 254.397 157.636 253.656 156.724 253.656C155.812 253.656 155.073 254.397 155.073 255.311C155.073 256.225 155.812 256.966 156.724 256.966Z" fill="#407BFF"/>
<path d="M163.527 256.966C164.439 256.966 165.178 256.225 165.178 255.311C165.178 254.397 164.439 253.656 163.527 253.656C162.615 253.656 161.876 254.397 161.876 255.311C161.876 256.225 162.615 256.966 163.527 256.966Z" fill="#407BFF"/>
<path d="M170.331 256.966C171.243 256.966 171.982 256.225 171.982 255.311C171.982 254.397 171.243 253.656 170.331 253.656C169.419 253.656 168.68 254.397 168.68 255.311C168.68 256.225 169.419 256.966 170.331 256.966Z" fill="#407BFF"/>
<path d="M177.134 256.966C178.046 256.966 178.785 256.225 178.785 255.311C178.785 254.397 178.046 253.656 177.134 253.656C176.222 253.656 175.483 254.397 175.483 255.311C175.483 256.225 176.222 256.966 177.134 256.966Z" fill="#407BFF"/>
<path d="M307.449 112.74L300.843 109.738L291.519 113.634V118.292C291.519 118.292 305.995 117.806 305.984 117.828C305.973 117.85 322.311 123.281 328.344 122.442C334.377 121.603 353.543 94.7728 353.543 94.7728L343.889 86.3076L325.525 112.542L307.449 112.74Z" fill="#FCC1BB"/>
<path opacity="0.1" d="M307.449 112.74L300.843 109.738L291.519 113.634V118.292C291.519 118.292 305.995 117.806 305.984 117.828L307.085 118.192L311.753 112.674L307.449 112.74Z" fill="black"/>
<path d="M337.393 93.934C337.393 93.934 344.065 82.0365 348.336 78.2619C350.923 75.9663 354.534 75.2599 356.967 75.0502C357.33 75.0198 357.696 75.065 358.041 75.183C358.386 75.301 358.703 75.4893 358.971 75.736C359.24 75.9827 359.455 76.2825 359.603 76.6165C359.751 76.9506 359.828 77.3116 359.829 77.677C359.829 82.3896 358.641 92.6206 348.986 103.161L337.393 93.934Z" fill="#263238"/>
<path d="M337.393 91.6929C342.564 94.3398 346.983 98.254 350.241 103.072L347.643 105.08C344.262 100.945 340.236 97.3855 335.72 94.5403L337.393 91.6929Z" fill="#407BFF"/>
<path d="M321.067 48.7163L317.764 53.9036C318.37 54.2916 319.058 54.5308 319.774 54.6018C320.489 54.6727 321.211 54.5734 321.881 54.3119L321.067 48.7163Z" fill="#EB827E"/>
<path d="M320.516 52.0051C319.73 52.0582 318.946 51.873 318.265 51.4736C317.585 51.0742 317.041 50.479 316.702 49.7654C316.364 49.0517 316.247 48.2525 316.368 47.4716C316.488 46.6907 316.84 45.9642 317.378 45.3863C317.916 44.8085 318.614 44.4061 319.383 44.2313C320.152 44.0566 320.955 44.1176 321.689 44.4064C322.422 44.6952 323.052 45.1985 323.497 45.851C323.942 46.5034 324.18 47.2748 324.182 48.065C324.215 49.0742 323.848 50.0553 323.161 50.7937C322.474 51.5321 321.523 51.9677 320.516 52.0051ZM320.516 44.9637C319.89 44.908 319.262 45.0434 318.714 45.3521C318.167 45.6607 317.725 46.1282 317.447 46.6931C317.169 47.2581 317.068 47.8941 317.157 48.5176C317.246 49.1412 317.521 49.7232 317.946 50.1872C318.371 50.6512 318.926 50.9756 319.538 51.1177C320.15 51.2598 320.791 51.213 321.376 50.9835C321.961 50.754 322.464 50.3524 322.817 49.8316C323.17 49.3107 323.359 48.6949 323.357 48.065C323.386 47.2771 323.105 46.5092 322.573 45.9284C322.041 45.3476 321.302 45.0009 320.516 44.9637Z" fill="#407BFF"/>
<path d="M319.085 48.0319C319.085 48.705 319.415 49.2567 319.855 49.2567C320.296 49.2567 320.681 48.705 320.67 48.0539C320.659 47.4029 320.34 46.8291 319.899 46.8291C319.459 46.8291 319.096 47.3256 319.085 48.0319Z" fill="#1A2E35"/>
<path d="M344.868 43.8051C345.166 52.7117 345.485 56.4862 341.456 61.4638C335.07 66.7393 324.403 67.3573 321.452 58.7156C318.81 50.99 318.766 37.7459 327.089 33.3313C328.918 32.3593 330.965 31.8737 333.034 31.9206C335.104 31.9675 337.127 32.5455 338.91 33.5993C340.693 34.6531 342.177 36.1477 343.221 37.9402C344.264 39.7326 344.831 41.7633 344.868 43.8382V43.8051Z" fill="#FCC1BB"/>
<path opacity="0.2" d="M332.395 65.2492L332.329 64.8077C332.297 64.5804 332.216 64.3627 332.093 64.1691C331.97 63.9754 331.808 63.8104 331.616 63.685C331.424 63.5596 331.208 63.4767 330.981 63.442C330.755 63.4072 330.524 63.4213 330.303 63.4833L326.692 64.4656C328.499 65.1964 330.459 65.4657 332.395 65.2492Z" fill="#1A2E35"/>
<path d="M321.485 44.9526C321.427 44.9626 321.368 44.9565 321.314 44.9351C321.259 44.9137 321.212 44.8778 321.176 44.8312C320.903 44.4913 320.552 44.221 320.155 44.0427C319.757 43.8643 319.322 43.7829 318.887 43.805C318.838 43.8175 318.787 43.8193 318.738 43.8103C318.688 43.8014 318.641 43.7819 318.6 43.7531C318.558 43.7244 318.524 43.6871 318.498 43.6437C318.472 43.6004 318.456 43.552 318.45 43.5018C318.445 43.4516 318.45 43.4008 318.466 43.3529C318.481 43.3049 318.507 43.2608 318.541 43.2237C318.575 43.1865 318.617 43.1572 318.663 43.1375C318.71 43.1179 318.76 43.1084 318.81 43.1098C319.36 43.0727 319.911 43.1686 320.417 43.3894C320.923 43.6103 321.368 43.9496 321.716 44.3788C321.778 44.4462 321.813 44.5349 321.813 44.6271C321.813 44.7192 321.778 44.808 321.716 44.8754C321.685 44.9033 321.648 44.9246 321.608 44.9379C321.568 44.9511 321.526 44.9562 321.485 44.9526Z" fill="#1A2E35"/>
<path d="M332.065 62.9982L334.014 76.2201L345.034 73.9356L341.5 60.3936L332.065 62.9982Z" fill="#FCC1BB"/>
<path d="M321.023 36.587C324.777 43.7388 327.375 37.194 326.681 42.9662C325.988 48.7384 328.057 50.6036 328.057 50.6036L335.61 61.8941C335.808 62.1787 336.099 62.3844 336.433 62.4752C336.768 62.566 337.123 62.5361 337.437 62.3908C338.03 62.0618 338.683 61.8578 339.357 61.7914C340.031 61.725 340.711 61.7975 341.356 62.0045C341.592 62.1084 341.852 62.1438 342.107 62.1067C342.362 62.0697 342.602 61.9616 342.799 61.7948C346.65 58.1447 349.12 53.2695 349.789 47.9989C352.222 32.4372 340.288 30.0533 340.288 30.0533C333.683 28.6737 335.356 21.6323 331.415 21.6323C328.41 21.6323 329.29 26.5878 329.29 26.5878C329.29 26.5878 326.076 24.1708 324.204 24.9985C321.793 26.1022 323.929 31.0135 323.929 31.0135C323.929 31.0135 317.346 29.5677 321.023 36.587Z" fill="#1A2E35"/>
<path d="M328.784 46.4098H317.775L318.304 45.3062H328.784V46.4098Z" fill="#407BFF"/>
<path d="M326.527 47.7781C326.203 49.5639 326.599 51.4056 327.628 52.8991C329.026 54.8747 331.25 54.0028 332.142 51.8948C332.945 49.9854 333.177 46.6855 331.151 45.4604C330.707 45.2026 330.207 45.0594 329.695 45.0435C329.182 45.0276 328.674 45.1396 328.216 45.3694C327.757 45.5992 327.363 45.9397 327.068 46.3601C326.773 46.7805 326.587 47.2678 326.527 47.7781Z" fill="#FFC3BD"/>
<path d="M329.093 71.3856C329.093 71.3856 336.171 64.6753 343.591 65.2271C348.634 65.5913 350.197 71.9374 350.197 71.9374L329.093 71.3856Z" fill="#263238"/>
<path opacity="0.2" d="M329.093 71.3856C329.093 71.3856 336.171 64.6753 343.591 65.2271C348.634 65.5913 350.197 71.9374 350.197 71.9374L329.093 71.3856Z" fill="white"/>
<path d="M333.87 152.506L318.37 76.6174C318.211 75.9184 318.204 75.1934 318.35 74.4916C318.496 73.7899 318.792 73.1279 319.216 72.5508C319.64 71.9737 320.183 71.495 320.808 71.1474C321.434 70.7997 322.126 70.5912 322.839 70.5362C332.56 69.7195 352.168 68.9359 358.729 74.9508C374.009 89.0116 375.242 153.587 375.242 153.587L333.87 152.506Z" fill="#263238"/>
<path opacity="0.5" d="M322.718 75.4362C321.204 76.0396 319.813 76.9148 318.612 78.0188L323.709 102.984C328.267 92.7528 327.947 75.3921 327.947 75.3921L322.718 75.4362Z" fill="black"/>
<path d="M276.546 111.791L269.941 108.48L260.726 112.762V117.861C260.726 117.861 275.038 117.331 275.038 117.364C275.038 117.397 291.177 123.335 297.144 122.419C303.111 121.503 322.102 92.0683 322.102 92.0683L312.557 82.7754L294.392 111.57L276.546 111.791Z" fill="#FCC1BB"/>
<path d="M306.205 91.1633C306.205 91.1633 312.81 78.0958 317.026 73.9571C321.243 69.8183 328.223 70.3812 328.223 70.3812C328.223 70.3812 330.7 85.5235 317.676 101.284L306.205 91.1633Z" fill="#263238"/>
<path d="M306.205 88.7021C311.453 91.6961 315.844 95.9951 318.953 101.185L316.388 103.392C316.388 103.392 311.148 96.0415 304.597 91.8255L306.205 88.7021Z" fill="#263238"/>
<path opacity="0.2" d="M306.205 88.7021C311.453 91.6961 315.844 95.9951 318.953 101.185L316.388 103.392C316.388 103.392 311.148 96.0415 304.597 91.8255L306.205 88.7021Z" fill="white"/>
<path d="M329.412 235.346L333.188 253.667L340.63 252.563L338.835 234.728L329.412 235.346Z" fill="#FCC1BB"/>
<path opacity="0.2" d="M340.013 246.482L338.835 234.728L329.412 235.346L331.768 246.802L340.013 246.482Z" fill="black"/>
<path d="M373.569 151.954C373.569 151.954 377.356 171.82 364.421 171.82C351.485 171.82 334.278 176.058 334.278 176.058C334.278 176.058 339.232 180.77 340.333 240.887L329.599 241.351C329.599 241.351 311.764 173.497 315.287 166.036C320.241 155.541 345.892 151.954 345.892 151.954H373.569Z" fill="#407BFF"/>
<path opacity="0.2" d="M373.569 151.954C373.569 151.954 377.356 171.82 364.421 171.82C351.485 171.82 334.278 176.058 334.278 176.058C334.278 176.058 339.232 180.77 340.333 240.887L329.599 241.351C329.599 241.351 311.764 173.497 315.287 166.036C320.241 155.541 345.892 151.954 345.892 151.954H373.569Z" fill="black"/>
<path d="M327.32 238.127L341.918 237.763L341.445 243.833L329.203 244.352L327.32 238.127Z" fill="#407BFF"/>
<path opacity="0.5" d="M327.32 238.127L341.918 237.763L341.445 243.833L329.203 244.352L327.32 238.127Z" fill="white"/>
<path d="M329.84 254.826C329.043 255.009 328.206 254.895 327.485 254.506C327.393 254.395 327.336 254.259 327.322 254.115C327.309 253.971 327.338 253.827 327.408 253.7C327.459 253.587 327.532 253.484 327.622 253.399C327.713 253.314 327.82 253.247 327.936 253.204C329.18 252.696 332.075 253.91 332.196 253.965C332.232 253.978 332.264 254.002 332.286 254.034C332.308 254.065 332.32 254.103 332.32 254.142C332.32 254.18 332.308 254.218 332.286 254.25C332.264 254.281 332.232 254.305 332.196 254.318C331.428 254.559 330.639 254.729 329.84 254.826ZM328.421 253.458C328.303 253.47 328.188 253.5 328.079 253.546C328.003 253.567 327.934 253.606 327.876 253.659C327.819 253.713 327.775 253.78 327.749 253.855C327.639 254.098 327.749 254.197 327.749 254.252C328.167 254.716 330.127 254.495 331.547 254.142C330.555 253.724 329.496 253.492 328.421 253.458Z" fill="#407BFF"/>
<path d="M332.153 254.317H332.075C331.096 254.02 329.038 252.563 329.093 251.669C329.093 251.448 329.214 251.184 329.72 251.062C329.907 251.017 330.102 251.011 330.291 251.045C330.481 251.08 330.661 251.153 330.821 251.261C331.626 252.027 332.172 253.026 332.384 254.119C332.389 254.151 332.386 254.185 332.374 254.216C332.363 254.247 332.343 254.274 332.318 254.295C332.295 254.315 332.268 254.327 332.238 254.331C332.209 254.335 332.179 254.33 332.153 254.317ZM329.885 251.404H329.775C329.445 251.471 329.445 251.603 329.434 251.658C329.434 252.188 330.832 253.357 331.855 253.81C331.651 252.959 331.194 252.189 330.546 251.603C330.352 251.471 330.117 251.416 329.885 251.448V251.404Z" fill="#407BFF"/>
<path d="M332.847 253.137L341.302 252.122C341.457 252.099 341.615 252.132 341.748 252.214C341.881 252.297 341.98 252.425 342.028 252.575L344.384 259.285C344.441 259.426 344.469 259.577 344.465 259.729C344.462 259.881 344.427 260.03 344.363 260.168C344.299 260.306 344.207 260.429 344.093 260.53C343.979 260.63 343.846 260.706 343.702 260.753L343.47 260.808C340.41 261.128 337.68 261.282 333.882 261.746C329.401 262.287 330.579 262.684 325.339 263.39C322.168 263.821 321.155 260.267 322.487 259.936C328.553 258.413 328.972 256.47 331.074 253.976C331.545 253.491 332.174 253.193 332.847 253.137Z" fill="#407BFF"/>
<path d="M307.635 240.258L314.659 257.343L321.496 255.974L316.795 237.698L307.635 240.258Z" fill="#FCC1BB"/>
<path opacity="0.2" d="M319.922 249.882L316.795 237.698L307.635 240.258L312.204 251.361L319.922 249.882Z" fill="black"/>
<path d="M373.569 151.954C373.569 151.954 381.561 172.669 355.151 171.82C345.033 171.489 301.206 181.753 301.206 181.753C301.206 181.753 309.1 185.891 319.008 241.351L307.801 243.9C307.801 243.9 276.007 180.925 279.519 173.475C284.473 162.968 336.612 151.954 336.612 151.954H373.569Z" fill="#407BFF"/>
<path d="M306.436 243.182L319.735 240.335L321.111 245.853L308.362 248.8L306.436 243.182Z" fill="#407BFF"/>
<path opacity="0.5" d="M306.436 243.182L319.735 240.335L321.111 245.853L308.362 248.8L306.436 243.182Z" fill="white"/>
<path d="M310.432 258.126C309.637 258.313 308.802 258.199 308.087 257.806C307.992 257.697 307.932 257.561 307.916 257.417C307.901 257.273 307.929 257.127 307.999 257C308.104 256.772 308.294 256.594 308.527 256.504C309.782 255.985 312.666 257.21 312.798 257.265C312.831 257.281 312.859 257.307 312.878 257.338C312.897 257.369 312.908 257.405 312.908 257.442C312.903 257.48 312.889 257.517 312.866 257.548C312.842 257.579 312.812 257.603 312.776 257.618C312.01 257.854 311.226 258.023 310.432 258.126ZM309.023 256.757C308.902 256.77 308.783 256.8 308.67 256.846C308.598 256.87 308.531 256.909 308.474 256.96C308.417 257.011 308.372 257.074 308.34 257.144C308.23 257.386 308.34 257.497 308.34 257.552C308.769 258.015 310.718 257.795 312.138 257.442C311.152 257.018 310.095 256.786 309.023 256.757Z" fill="#407BFF"/>
<path d="M312.743 257.617C312.731 257.623 312.718 257.626 312.705 257.626C312.691 257.626 312.678 257.623 312.666 257.617C311.698 257.319 309.628 255.852 309.694 254.958C309.694 254.748 309.815 254.472 310.311 254.362C310.497 254.317 310.691 254.311 310.88 254.343C311.069 254.375 311.25 254.445 311.411 254.55C312.222 255.316 312.77 256.321 312.974 257.419C312.982 257.45 312.982 257.484 312.972 257.515C312.962 257.546 312.944 257.574 312.919 257.595C312.894 257.613 312.865 257.625 312.834 257.629C312.803 257.632 312.772 257.628 312.743 257.617ZM310.476 254.693H310.366C310.047 254.759 310.036 254.892 310.025 254.947C310.025 255.477 311.422 256.646 312.457 257.099C312.255 256.228 311.795 255.439 311.136 254.837C310.938 254.717 310.707 254.663 310.476 254.682V254.693Z" fill="#407BFF"/>
<path d="M313.438 256.438L321.904 255.411C322.058 255.394 322.213 255.43 322.345 255.512C322.476 255.594 322.577 255.718 322.63 255.864L324.986 262.585C325.043 262.727 325.07 262.879 325.066 263.031C325.062 263.184 325.026 263.334 324.96 263.472C324.895 263.61 324.802 263.732 324.687 263.833C324.572 263.933 324.438 264.008 324.292 264.053H324.061C321.001 264.362 318.271 264.528 314.472 264.98C309.992 265.521 311.17 265.929 305.94 266.636C302.77 267.055 301.757 263.512 303.078 263.17C309.144 261.658 309.562 259.716 311.676 257.21C312.148 256.743 312.775 256.468 313.438 256.438Z" fill="#407BFF"/>
<path d="M397.756 245.732C391.029 244.629 381.044 243.061 376.596 242.73C375.628 242.653 374.395 242.598 373.051 242.565V207.965H364.608V242.565C363.253 242.565 362.031 242.653 361.052 242.73C356.648 243.061 346.63 244.629 339.903 245.732C338.028 246.043 336.323 247.012 335.093 248.465C333.864 249.918 333.188 251.762 333.188 253.668V255.423H341.434L342.534 252.961C342.534 252.961 357.947 250.29 363.143 249.904C366.968 249.695 370.801 249.695 374.626 249.904C379.822 250.29 395.224 252.961 395.224 252.961L396.325 255.423H404.526V253.668C404.524 251.754 403.84 249.904 402.6 248.449C401.359 246.995 399.641 246.032 397.756 245.732Z" fill="#263238"/>
<path opacity="0.1" d="M397.756 245.732C391.029 244.629 381.044 243.061 376.596 242.73C375.628 242.653 374.395 242.598 373.051 242.565V207.965H364.608V242.565C363.253 242.565 362.031 242.653 361.052 242.73C356.648 243.061 346.63 244.629 339.903 245.732C338.028 246.043 336.323 247.012 335.093 248.465C333.864 249.918 333.188 251.762 333.188 253.668V255.423H341.434L342.534 252.961C342.534 252.961 357.947 250.29 363.143 249.904C366.968 249.695 370.801 249.695 374.626 249.904C379.822 250.29 395.224 252.961 395.224 252.961L396.325 255.423H404.526V253.668C404.524 251.754 403.84 249.904 402.6 248.449C401.359 246.995 399.641 246.032 397.756 245.732Z" fill="white"/>
<path d="M362.042 179.743H375.561V208.99C375.561 210.035 375.147 211.038 374.41 211.776C373.673 212.515 372.674 212.93 371.631 212.93H365.918C364.875 212.93 363.875 212.515 363.138 211.776C362.401 211.038 361.987 210.035 361.987 208.99V179.743H362.042Z" fill="#263238"/>
<path opacity="0.2" d="M375.617 179.743H362.042V187.822H375.617V179.743Z" fill="black"/>
<path d="M401.036 267.011C404.228 267.011 406.816 264.417 406.816 261.217C406.816 258.017 404.228 255.422 401.036 255.422C397.844 255.422 395.257 258.017 395.257 261.217C395.257 264.417 397.844 267.011 401.036 267.011Z" fill="#263238"/>
<path d="M336.623 267.011C339.815 267.011 342.402 264.417 342.402 261.217C342.402 258.017 339.815 255.422 336.623 255.422C333.43 255.422 330.843 258.017 330.843 261.217C330.843 264.417 333.43 267.011 336.623 267.011Z" fill="#263238"/>
<path d="M414.709 172.856C406.609 170.793 398.305 169.646 389.95 169.435C381.352 169.225 349.217 169.435 341.51 169.435C332.204 169.421 322.933 170.571 313.911 172.856C308.241 174.302 309.991 182.513 315.111 182.613C315.562 182.613 412.838 182.613 413.201 182.613C418.552 182.845 420.5 174.335 414.709 172.856Z" fill="#407BFF"/>
<path opacity="0.3" d="M414.709 172.856C406.609 170.793 398.305 169.646 389.95 169.435C381.352 169.225 349.217 169.435 341.51 169.435C332.204 169.421 322.933 170.571 313.911 172.856C308.241 174.302 309.991 182.513 315.111 182.613C315.562 182.613 412.838 182.613 413.201 182.613C418.552 182.845 420.5 174.335 414.709 172.856Z" fill="black"/>
<path d="M316.531 182.437C332.934 178.254 350.12 178.254 366.523 182.437C372.71 184.015 375.33 174.435 369.154 172.857C351.024 168.243 332.03 168.243 313.9 172.857C307.724 174.435 310.344 184.015 316.531 182.437Z" fill="#407BFF"/>
<g opacity="0.4">
<path opacity="0.4" d="M316.531 182.437C332.934 178.254 350.12 178.254 366.523 182.437C372.71 184.015 375.33 174.435 369.154 172.857C351.024 168.243 332.03 168.243 313.9 172.857C307.724 174.435 310.344 184.015 316.531 182.437Z" fill="white"/>
</g>
<path d="M388.684 101.781C388.129 101.769 387.58 101.909 387.099 102.187C386.618 102.466 386.222 102.871 385.954 103.359C372.877 125.349 368.184 151.342 372.743 176.532C372.814 177.168 373.109 177.759 373.575 178.196C374.041 178.633 374.648 178.888 375.286 178.916C377.279 179.06 412.596 178.916 413.818 178.916C414.341 178.928 414.86 178.824 415.339 178.612C415.817 178.4 416.243 178.084 416.586 177.688C416.929 177.291 417.18 176.824 417.322 176.319C417.464 175.814 417.493 175.284 417.407 174.766C413.287 151.298 417.751 127.126 429.979 106.692C431.487 104.176 429.264 101.814 427.018 101.77C426.016 101.759 390.974 101.825 388.684 101.781Z" fill="#407BFF"/>
<path opacity="0.2" d="M388.684 101.781C388.129 101.769 387.58 101.909 387.099 102.187C386.618 102.466 386.222 102.871 385.954 103.359C372.877 125.349 368.184 151.342 372.743 176.532C372.814 177.168 373.109 177.759 373.575 178.196C374.041 178.633 374.648 178.888 375.286 178.916C377.279 179.06 412.596 178.916 413.818 178.916C414.341 178.928 414.86 178.824 415.339 178.612C415.817 178.4 416.243 178.084 416.586 177.688C416.929 177.291 417.18 176.824 417.322 176.319C417.464 175.814 417.493 175.284 417.407 174.766C413.287 151.298 417.751 127.126 429.979 106.692C431.487 104.176 429.264 101.814 427.018 101.77C426.016 101.759 390.974 101.825 388.684 101.781Z" fill="black"/>
<path d="M379.084 174.777C374.958 151.308 379.423 127.135 391.657 106.703C393.859 103.039 388.145 99.7057 385.954 103.392C372.877 125.382 368.184 151.375 372.743 176.565C373.503 180.759 379.866 178.982 379.117 174.81L379.084 174.777Z" fill="#407BFF"/>
<g opacity="0.4">
<path opacity="0.4" d="M379.084 174.777C374.958 151.308 379.423 127.135 391.657 106.703C393.859 103.039 388.145 99.7057 385.954 103.392C372.877 125.382 368.184 151.375 372.743 176.565C373.503 180.759 379.866 178.982 379.117 174.81L379.084 174.777Z" fill="white"/>
</g>
<path d="M335.83 145.982L369.859 177.161C372.204 179.368 375.727 175.815 373.36 173.651L339.331 142.451C336.986 140.299 333.474 143.797 335.83 145.96V145.982Z" fill="#263238"/>
<g opacity="0.5">
<path opacity="0.5" d="M335.83 145.982L369.859 177.161C372.204 179.368 375.727 175.815 373.36 173.651L339.331 142.451C336.986 140.299 333.474 143.797 335.83 145.96V145.982Z" fill="white"/>
</g>
<path opacity="0.2" d="M339.331 142.473C336.986 140.321 333.474 143.819 335.83 145.982L342.336 151.953H349.668L339.331 142.473Z" fill="black"/>
<path d="M318.083 147.539H364.784C369.033 147.539 369.033 140.917 364.784 140.917H318.083C313.834 140.917 313.823 147.539 318.083 147.539Z" fill="#407BFF"/>
<g opacity="0.3">
<path opacity="0.3" d="M318.083 147.539H364.784C369.033 147.539 369.033 140.917 364.784 140.917H318.083C313.834 140.917 313.823 147.539 318.083 147.539Z" fill="white"/>
</g>
</svg>
